<svg width="398" height="210" viewBox="0 0 398 210" fill="none" xmlns="http://www.w3.org/2000/svg">
<path d="M5.47272 209.368C2.48342 209.364 0.0144764 206.947 0.018239 203.9L0.061378 168.968C0.0650697 165.979 2.48256 163.51 5.52935 163.514L32.7205 163.547C33.0919 142.105 37.4865 121.358 45.8463 101.708C54.2063 81.9429 66.1854 64.2518 81.4381 49.0367C96.6909 33.8215 114.412 21.8862 134.197 13.5751C154.673 4.97736 176.408 0.635218 198.771 0.662835C221.133 0.690451 242.857 5.08627 263.312 13.792C283.077 22.152 300.768 34.1311 315.983 49.3838C331.198 64.6366 343.134 82.3572 351.445 102.143C359.699 121.756 364.1 142.572 364.418 164.015L391.609 164.048C394.598 164.052 397.067 166.469 397.064 169.516L397.02 204.448C397.017 207.437 394.599 209.906 391.553 209.902L5.47265 209.425L5.47272 209.368ZM304.574 163.941C303.208 106.855 256.011 60.5771 198.697 60.5064C141.383 60.4356 94.0716 106.596 92.564 163.679L304.574 163.941Z" fill="#239AD6" fill-opacity="0.6"/>
<path d="M5.47183 208.867C3.22985 208.864 1.39255 207.022 1.39532 204.78L1.43948 169.026C1.44224 166.784 3.28409 164.946 5.52606 164.949L34.0969 164.984C34.2962 143.255 38.6912 122.22 47.1088 102.34C55.411 82.7472 67.275 65.171 82.4126 50.1282C97.5502 35.0279 115.156 23.2074 134.711 14.9534C155.015 6.29802 176.578 2.01315 198.767 2.04056C220.957 2.06796 242.509 6.46356 262.792 15.0541C282.384 23.3564 299.96 35.2204 315.003 50.3579C330.104 65.4956 341.924 83.1011 350.178 102.657C358.547 122.557 362.889 143.66 363.035 165.333L391.606 165.368C393.848 165.371 395.685 167.213 395.682 169.455L395.638 205.209C395.636 207.451 393.794 209.289 391.552 209.286L5.4719 208.809L5.47183 208.867ZM305.951 165.263C305.276 106.74 257.333 59.1396 198.697 59.0672C140.061 58.9948 91.9432 106.477 91.1811 164.997L305.951 165.263Z" fill="#7CCED6" fill-opacity="0.6"/>
<path opacity="0.4" d="M362.231 166.714C361.943 166.713 361.713 166.483 361.714 166.196C361.683 144.351 357.398 123.19 348.972 103.232C340.775 83.7914 329.012 66.3584 314.084 51.336C299.156 36.371 281.695 24.5647 262.274 16.3201C242.165 7.78723 220.785 3.44933 198.768 3.42214C176.75 3.39495 155.36 7.68003 135.229 16.1632C115.789 24.3598 98.3556 36.123 83.3331 51.051C68.3682 65.979 56.5618 83.4404 48.3172 102.861C39.7844 122.971 35.4465 144.293 35.4194 166.31L5.52634 166.273C4.03169 166.271 2.82298 167.477 2.82113 168.972L2.77799 203.903C2.77615 205.398 3.98188 206.607 5.47653 206.608L391.556 207.085C393.051 207.087 394.26 205.881 394.262 204.387L394.305 169.455C394.307 167.96 393.101 166.752 391.606 166.75L362.231 166.714ZM89.8017 166.377C89.8757 106.419 138.742 57.6729 198.701 57.7469C258.659 57.821 307.405 106.687 307.331 166.646L89.8017 166.377Z" fill="#46A2DA" fill-opacity="0.6"/>
<circle cx="374.633" cy="188.222" r="10.9304" fill="#38A2C4"/>
<g clip-path="url(#clip0_17_3350)">
<path d="M381.663 182.742C381.337 182.712 381.05 182.952 381.02 183.277L380.942 184.136C379.613 182.049 377.306 180.654 374.633 180.654C371.757 180.654 369.223 182.296 367.965 184.759C367.817 185.05 367.932 185.406 368.223 185.554C368.514 185.703 368.87 185.587 369.018 185.297C370.083 183.212 372.221 181.837 374.633 181.837C376.831 181.837 378.816 182.982 379.952 184.775L379.109 184.173C378.844 183.983 378.474 184.045 378.285 184.311C378.095 184.576 378.156 184.946 378.422 185.135L380.978 186.961C381.353 187.228 381.87 186.984 381.911 186.534L382.198 183.385C382.227 183.059 381.988 182.772 381.663 182.742Z" fill="white"/>
<path d="M381.043 190.889C380.752 190.741 380.396 190.856 380.247 191.147C379.183 193.231 377.045 194.606 374.633 194.606C372.434 194.606 370.45 193.462 369.313 191.668L370.156 192.27C370.422 192.46 370.791 192.398 370.981 192.133C371.171 191.867 371.109 191.498 370.843 191.308L368.287 189.482C367.917 189.218 367.396 189.455 367.355 189.91L367.068 193.059C367.038 193.384 367.278 193.671 367.603 193.701C367.929 193.731 368.216 193.491 368.245 193.166L368.324 192.307C369.653 194.394 371.96 195.789 374.633 195.789C377.508 195.789 380.042 194.148 381.3 191.684C381.449 191.394 381.334 191.038 381.043 190.889Z" fill="white"/>
</g>
<circle opacity="0.8" cx="22.8728" cy="188.222" r="10.9304" fill="#7CCED6"/>
<g clip-path="url(#clip1_17_3350)">
<path d="M29.9029 182.742C29.5777 182.712 29.2901 182.952 29.2605 183.277L29.1821 184.136C27.8532 182.049 25.5462 180.654 22.8732 180.654C19.9976 180.654 17.4634 182.296 16.2054 184.759C16.0569 185.05 16.1723 185.406 16.4631 185.554C16.7539 185.703 17.1099 185.587 17.2584 185.297C18.3231 183.212 20.461 181.837 22.8732 181.837C25.0717 181.837 27.0558 182.982 28.1925 184.775L27.3496 184.173C27.0838 183.983 26.7146 184.045 26.5249 184.311C26.3351 184.576 26.3967 184.946 26.6624 185.135L29.2185 186.961C29.5931 187.228 30.1099 186.984 30.1508 186.534L30.4379 183.385C30.4676 183.059 30.228 182.772 29.9029 182.742Z" fill="white"/>
<path d="M29.283 190.889C28.9922 190.741 28.6361 190.856 28.4876 191.147C27.423 193.231 25.285 194.606 22.8729 194.606C20.6743 194.606 18.6902 193.462 17.5535 191.668L18.3965 192.27C18.6622 192.46 19.0314 192.398 19.2212 192.133C19.4109 191.867 19.3494 191.498 19.0837 191.308L16.5275 189.482C16.1575 189.218 15.6366 189.455 15.5952 189.91L15.3081 193.059C15.2785 193.384 15.5181 193.671 15.8432 193.701C16.1688 193.731 16.456 193.491 16.4856 193.166L16.564 192.307C17.8929 194.394 20.1998 195.789 22.8729 195.789C25.7484 195.789 28.2826 194.148 29.5406 191.684C29.6891 191.394 29.5738 191.038 29.283 190.889Z" fill="white"/>
</g>
<circle opacity="0.8" cx="198.753" cy="189.215" r="11.9241" fill="#7CCED6"/>
<g clip-path="url(#clip2_17_3350)">
<path d="M196.412 184.343L198.353 184.343L198.345 186.773H199.543L199.535 184.343L201.476 184.343L198.944 181.811L196.412 184.343ZM193.88 191.939L193.88 189.997L196.311 190.006V188.807L193.88 188.816L193.88 186.875L191.348 189.407L193.88 191.939ZM201.476 194.47L199.535 194.47L199.543 192.04H198.345L198.353 194.47L196.412 194.47L198.944 197.002L201.476 194.47ZM204.008 186.875L204.008 188.816L201.577 188.807V190.006L204.008 189.997L204.008 191.939L206.54 189.407L204.008 186.875Z" fill="white"/>
</g>
<path d="M38.8258 151.95L38.7598 152.694L49.5821 153.655L49.6481 152.91L38.8258 151.95Z" fill="white"/>
<path d="M43.7573 124.464L43.563 125.186L54.0538 128.011L54.2481 127.289L43.7573 124.464Z" fill="white"/>
<path d="M53.3987 98.1963L53.082 98.8732L62.9231 103.477L63.2398 102.8L53.3987 98.1963Z" fill="white"/>
<path d="M67.4743 74.026L67.0449 74.6377L75.9377 80.8807L76.3671 80.2691L67.4743 74.026Z" fill="white"/>
<path d="M85.5169 52.6724L84.9878 53.2002L92.6608 60.8922L93.1899 60.3644L85.5169 52.6724Z" fill="white"/>
<path d="M107.015 34.7745L106.402 35.2024L112.623 44.1105L113.236 43.6826L107.015 34.7745Z" fill="white"/>
<path d="M131.274 20.8801L130.597 21.1951L135.176 31.0475L135.854 30.7325L131.274 20.8801Z" fill="white"/>
<path d="M157.602 11.3879L156.88 11.5804L159.679 22.0782L160.401 21.8857L157.602 11.3879Z" fill="white"/>
<path d="M185.183 6.66684L184.438 6.73105L185.372 17.5557L186.117 17.4915L185.183 6.66684Z" fill="white"/>
<path d="M212.365 6.71429L211.404 17.5366L212.148 17.6028L213.11 6.78044L212.365 6.71429Z" fill="white"/>
<path d="M239.942 11.5296L237.114 22.0205L237.835 22.215L240.663 11.7242L239.942 11.5296Z" fill="white"/>
<path d="M266.192 21.0355L261.585 30.8755L262.262 31.1923L266.869 21.3523L266.192 21.0355Z" fill="white"/>
<path d="M290.435 35.0006L284.189 43.8912L284.801 44.3207L291.046 35.4302L290.435 35.0006Z" fill="white"/>
<path d="M311.861 52.9399L304.169 60.6129L304.697 61.142L312.389 53.469L311.861 52.9399Z" fill="white"/>
<path d="M329.868 74.3315L320.961 80.5537L321.389 81.1663L330.296 74.9442L329.868 74.3315Z" fill="white"/>
<path d="M343.886 98.5607L334.034 103.143L334.349 103.821L344.201 99.2383L343.886 98.5607Z" fill="white"/>
<path d="M353.455 124.84L342.958 127.642L343.15 128.364L353.648 125.562L353.455 124.84Z" fill="white"/>
<path d="M358.351 152.383L347.526 153.318L347.591 154.062L358.415 153.127L358.351 152.383Z" fill="white"/>
<path d="M51.6882 165.813L38.1216 165.796L38.1202 166.888L51.6868 166.905L51.6882 165.813Z" fill="white"/>
<path d="M40.7184 137.917L40.5273 138.992L53.8848 141.365L54.0759 140.29L40.7184 137.917Z" fill="white"/>
<path d="M48.0677 110.963L47.6929 111.989L60.4357 116.645L60.8105 115.619L48.0677 110.963Z" fill="white"/>
<path d="M60.0126 85.6788L59.4653 86.624L71.2056 93.4218L71.7529 92.4766L60.0126 85.6788Z" fill="white"/>
<path d="M76.1284 62.8408L75.4253 63.6766L85.8065 72.41L86.5097 71.5743L76.1284 62.8408Z" fill="white"/>
<path d="M96.0309 43.1455L95.1934 43.8466L103.901 54.2494L104.739 53.5483L96.0309 43.1455Z" fill="white"/>
<path d="M118.991 27.2441L118.044 27.789L124.813 39.5461L125.76 39.0011L118.991 27.2441Z" fill="white"/>
<path d="M144.377 15.5456L143.35 15.9179L147.974 28.6722L149.001 28.2999L144.377 15.5456Z" fill="white"/>
<path d="M171.413 8.39152L170.337 8.57991L172.677 21.9432L173.753 21.7548L171.413 8.39152Z" fill="white"/>
<path d="M199.282 6.12481L198.189 6.12346L198.173 19.6901L199.265 19.6914L199.282 6.12481Z" fill="white"/>
<path d="M226.079 8.48199L223.705 21.8395L224.78 22.0306L227.155 8.67315L226.079 8.48199Z" fill="white"/>
<path d="M253.123 15.68L248.469 28.4228L249.495 28.7975L254.149 16.0547L253.123 15.68Z" fill="white"/>
<path d="M278.432 27.4077L271.635 39.1493L272.581 39.6965L279.377 27.9548L278.432 27.4077Z" fill="white"/>
<path d="M301.386 43.4491L292.655 53.8331L293.491 54.536L302.222 44.152L301.386 43.4491Z" fill="white"/>
<path d="M321.224 63.1627L310.819 71.8678L311.52 72.7055L321.925 64.0004L321.224 63.1627Z" fill="white"/>
<path d="M337.313 86.0456L325.555 92.813L326.1 93.7597L337.858 86.9923L337.313 86.0456Z" fill="white"/>
<path d="M349.164 111.352L336.41 115.974L336.782 117.001L349.537 112.378L349.164 111.352Z" fill="white"/>
<path d="M356.442 138.363L343.079 140.704L343.268 141.78L356.631 139.438L356.442 138.363Z" fill="white"/>
<path d="M358.954 166.192L345.388 166.175L345.386 167.268L358.953 167.284L358.954 166.192Z" fill="white"/>
<path d="M43.5827 166.033L38.1216 166.026L38.1209 166.543L43.5821 166.55L43.5827 166.033Z" fill="white"/>
<path d="M38.1649 163.294L38.1553 163.811L43.6152 163.913L43.6249 163.396L38.1649 163.294Z" fill="white"/>
<path d="M38.2492 160.449L38.2305 160.966L43.6881 161.164L43.7068 160.647L38.2492 160.449Z" fill="white"/>
<path d="M38.3631 157.66L38.3354 158.176L43.7886 158.469L43.8163 157.952L38.3631 157.66Z" fill="white"/>
<path d="M38.5401 154.857L38.5034 155.373L43.951 155.76L43.9877 155.244L38.5401 154.857Z" fill="white"/>
<path d="M38.8011 152.114L38.7554 152.629L44.1952 153.112L44.2409 152.597L38.8011 152.114Z" fill="white"/>
<path d="M39.0537 149.296L38.999 149.811L44.4294 150.388L44.4841 149.874L39.0537 149.296Z" fill="white"/>
<path d="M39.4079 146.554L39.3442 147.068L44.7636 147.74L44.8273 147.227L39.4079 146.554Z" fill="white"/>
<path d="M39.768 143.732L39.6953 144.244L45.1025 145.011L45.1752 144.499L39.768 143.732Z" fill="white"/>
<path d="M40.2081 140.973L40.1265 141.484L45.5194 142.346L45.601 141.835L40.2081 140.973Z" fill="white"/>
<path d="M40.6325 138.202L40.542 138.712L45.9189 139.667L46.0094 139.158L40.6325 138.202Z" fill="white"/>
<path d="M41.1413 135.487L41.042 135.994L46.4014 137.043L46.5007 136.535L41.1413 135.487Z" fill="white"/>
<path d="M41.7039 132.714L41.5957 133.22L46.9358 134.362L47.044 133.856L41.7039 132.714Z" fill="white"/>
<path d="M42.369 130.015L42.252 130.519L47.5718 131.755L47.6888 131.251L42.369 130.015Z" fill="white"/>
<path d="M42.9954 127.294L42.8696 127.796L48.1669 129.124L48.2927 128.622L42.9954 127.294Z" fill="white"/>
<path d="M43.72 124.592L43.5854 125.092L48.8586 126.512L48.9931 126.012L43.72 124.592Z" fill="white"/>
<path d="M44.4928 121.884L44.3496 122.381L49.5975 123.892L49.7407 123.395L44.4928 121.884Z" fill="white"/>
<path d="M45.2954 119.189L45.1436 119.683L50.3641 121.286L50.516 120.792L45.2954 119.189Z" fill="white"/>
<path d="M46.1229 116.527L45.9624 117.019L51.1544 118.713L51.3149 118.221L46.1229 116.527Z" fill="white"/>
<path d="M47.0314 113.9L46.8623 114.388L52.0236 116.173L52.1927 115.684L47.0314 113.9Z" fill="white"/>
<path d="M47.9808 111.258L47.8032 111.744L52.9327 113.618L53.1103 113.133L47.9808 111.258Z" fill="white"/>
<path d="M48.9687 108.625L48.7827 109.108L53.8788 111.071L54.0648 110.588L48.9687 108.625Z" fill="white"/>
<path d="M49.984 105.984L49.7896 106.464L54.8506 108.516L55.045 108.036L49.984 105.984Z" fill="white"/>
<path d="M51.066 103.426L50.8633 103.902L55.8876 106.042L56.0903 105.566L51.066 103.426Z" fill="white"/>
<path d="M52.1778 100.866L51.9668 101.338L56.9528 103.565L57.1638 103.093L52.1778 100.866Z" fill="white"/>
<path d="M53.332 98.3036L53.1128 98.7722L58.0594 101.086L58.2786 100.618L53.332 98.3036Z" fill="white"/>
<path d="M54.5702 95.7695L54.3428 96.2343L59.2483 98.6345L59.4757 98.1697L54.5702 95.7695Z" fill="white"/>
<path d="M55.8053 93.2755L55.5698 93.7361L60.4326 96.2215L60.6681 95.7608L55.8053 93.2755Z" fill="white"/>
<path d="M57.1238 90.818L56.8804 91.2744L61.6988 93.8444L61.9423 93.3879L57.1238 90.818Z" fill="white"/>
<path d="M58.475 88.3519L58.2236 88.804L62.9967 91.4575L63.2481 91.0053L58.475 88.3519Z" fill="white"/>
<path d="M59.8276 85.939L59.5684 86.3867L64.2943 89.1231L64.5536 88.6754L59.8276 85.939Z" fill="white"/>
<path d="M61.2904 83.4959L61.0234 83.939L65.7012 86.7573L65.9682 86.3141L61.2904 83.4959Z" fill="white"/>
<path d="M62.7537 81.1105L62.479 81.549L67.107 84.4486L67.3817 84.0101L62.7537 81.1105Z" fill="white"/>
<path d="M64.2574 78.8014L63.9751 79.2349L68.5517 82.2147L68.834 81.7811L64.2574 78.8014Z" fill="white"/>
<path d="M65.8211 76.4472L65.5312 76.8757L70.0548 79.9352L70.3446 79.5066L65.8211 76.4472Z" fill="white"/>
<path d="M67.3915 74.1288L67.0942 74.5523L71.5641 77.6903L71.8614 77.2668L67.3915 74.1288Z" fill="white"/>
<path d="M69.0239 71.845L68.7192 72.2632L73.1333 75.4787L73.438 75.0605L69.0239 71.845Z" fill="white"/>
<path d="M70.6981 69.6362L70.3862 70.049L74.7434 73.3409L75.0553 72.9281L70.6981 69.6362Z" fill="white"/>
<path d="M72.4015 67.4259L72.0825 67.8332L76.3817 71.2004L76.7007 70.7931L72.4015 67.4259Z" fill="white"/>
<path d="M74.1411 65.2163L73.8149 65.6179L78.0545 69.0604L78.3807 68.6588L74.1411 65.2163Z" fill="white"/>
<path d="M75.9849 63.0702L75.6519 63.4661L79.8308 66.9816L80.1638 66.5857L75.9849 63.0702Z" fill="white"/>
<path d="M77.7848 60.9273L77.4448 61.3173L81.5619 64.9054L81.9018 64.5154L77.7848 60.9273Z" fill="white"/>
<path d="M79.6098 58.8545L79.2632 59.2386L83.3174 62.8976L83.664 62.5136L79.6098 58.8545Z" fill="white"/>
<path d="M81.5481 56.7838L81.1948 57.1618L85.1845 60.8912L85.5378 60.5132L81.5481 56.7838Z" fill="white"/>
<path d="M83.4668 54.7397L83.1069 55.1115L87.031 58.9096L87.3908 58.5379L83.4668 54.7397Z" fill="white"/>
<path d="M85.4205 52.7833L85.0542 53.1487L88.911 57.015L89.2773 56.6496L85.4205 52.7833Z" fill="white"/>
<path d="M87.4395 50.8604L87.0669 51.2193L90.8553 55.1527L91.228 54.7938L87.4395 50.8604Z" fill="white"/>
<path d="M89.4863 48.9172L89.1074 49.2696L92.827 53.2685L93.2058 52.9161L89.4863 48.9172Z" fill="white"/>
<path d="M91.5602 46.9833L91.1753 47.329L94.8243 51.3922L95.2093 51.0465L91.5602 46.9833Z" fill="white"/>
<path d="M93.6126 45.1476L93.2217 45.4865L96.7996 49.6125L97.1905 49.2735L93.6126 45.1476Z" fill="white"/>
<path d="M95.7732 43.3178L95.3765 43.6499L98.8817 47.8374L99.2784 47.5053L95.7732 43.3178Z" fill="white"/>
<path d="M97.962 41.5594L97.5596 41.8845L100.992 46.1326L101.394 45.8075L97.962 41.5594Z" fill="white"/>
<path d="M100.126 39.8394L99.7178 40.1573L103.074 44.4649L103.482 44.1469L100.126 39.8394Z" fill="white"/>
<path d="M102.357 38.1455L101.944 38.4563L105.225 42.8217L105.639 42.5108L102.357 38.1455Z" fill="white"/>
<path d="M104.655 36.4894L104.236 36.793L107.441 41.215L107.86 40.9114L104.655 36.4894Z" fill="white"/>
<path d="M106.941 34.8582L106.517 35.1544L109.644 39.632L110.068 39.3358L106.941 34.8582Z" fill="white"/>
<path d="M109.224 33.2998L108.795 33.5886L111.843 38.1196L112.272 37.8308L109.224 33.2998Z" fill="white"/>
<path d="M111.553 31.735L111.119 32.0162L114.087 36.6001L114.521 36.3189L111.553 31.735Z" fill="white"/>
<path d="M113.896 30.2336L113.457 30.5072L116.345 35.1424L116.784 34.8687L113.896 30.2336Z" fill="white"/>
<path d="M116.294 28.7777L115.851 29.0436L118.657 33.7284L119.101 33.4625L116.294 28.7777Z" fill="white"/>
<path d="M118.702 27.3787L118.253 27.6368L120.978 32.3695L121.427 32.1114L118.702 27.3787Z" fill="white"/>
<path d="M121.174 26.0265L120.722 26.2768L123.363 31.0564L123.816 30.8061L121.174 26.0265Z" fill="white"/>
<path d="M123.628 24.6881L123.171 24.9305L125.729 29.7553L126.187 29.5129L123.628 24.6881Z" fill="white"/>
<path d="M126.149 23.3973L125.688 23.6316L128.161 28.5006L128.623 28.2662L126.149 23.3973Z" fill="white"/>
<path d="M128.652 22.1143L128.187 22.3405L130.575 27.252L131.04 27.0257L128.652 22.1143Z" fill="white"/>
<path d="M131.184 20.9588L130.714 21.1769L133.016 26.1291L133.485 25.9111L131.184 20.9588Z" fill="white"/>
<path d="M133.696 19.8156L133.223 20.0254L135.438 25.0169L135.911 24.807L133.696 19.8156Z" fill="white"/>
<path d="M136.277 18.7034L135.801 18.9049L137.928 23.9345L138.405 23.733L136.277 18.7034Z" fill="white"/>
<path d="M138.846 17.613L138.366 17.8062L140.405 22.8723L140.885 22.6791L138.846 17.613Z" fill="white"/>
<path d="M141.49 16.6073L141.007 16.7922L142.958 21.8931L143.441 21.7083L141.49 16.6073Z" fill="white"/>
<path d="M144.115 15.6228L143.629 15.7992L145.49 20.9333L145.977 20.757L144.115 15.6228Z" fill="white"/>
<path d="M146.747 14.6881L146.257 14.8559L148.029 20.0216L148.518 19.8538L146.747 14.6881Z" fill="white"/>
<path d="M149.394 13.833L148.902 13.9923L150.583 19.1885L151.075 19.0292L149.394 13.833Z" fill="white"/>
<path d="M152.067 12.9469L151.572 13.0976L153.162 18.3221L153.657 18.1714L152.067 12.9469Z" fill="white"/>
<path d="M154.775 12.203L154.278 12.345L155.776 17.5967L156.274 17.4547L154.775 12.203Z" fill="white"/>
<path d="M157.454 11.4505L156.955 11.5838L158.361 16.8605L158.861 16.7272L157.454 11.4505Z" fill="white"/>
<path d="M160.152 10.7637L159.649 10.8882L160.964 16.1888L161.466 16.0643L160.152 10.7637Z" fill="white"/>
<path d="M162.909 10.1134L162.405 10.2292L163.627 15.552L164.131 15.4362L162.909 10.1134Z" fill="white"/>
<path d="M165.649 9.54286L165.143 9.6498L166.272 14.9927L166.778 14.8858L165.649 9.54286Z" fill="white"/>
<path d="M168.397 8.95932L167.889 9.0574L168.924 14.4193L169.432 14.3213L168.397 8.95932Z" fill="white"/>
<path d="M171.148 8.43432L170.638 8.52356L171.58 13.9029L172.09 13.8136L171.148 8.43432Z" fill="white"/>
<path d="M173.902 7.97876L173.391 8.0591L174.239 13.4541L174.75 13.3738L173.902 7.97876Z" fill="white"/>
<path d="M176.656 7.58107L176.144 7.65245L176.897 13.0616L177.41 12.9902L176.656 7.58107Z" fill="white"/>
<path d="M179.451 7.2382L178.938 7.30063L179.597 12.7216L180.11 12.6592L179.451 7.2382Z" fill="white"/>
<path d="M182.207 6.96664L181.692 7.02007L182.256 12.4519L182.771 12.3984L182.207 6.96664Z" fill="white"/>
<path d="M185.017 6.67179L184.502 6.71625L184.971 12.1572L185.487 12.1128L185.017 6.67179Z" fill="white"/>
<path d="M187.829 6.44402L187.313 6.47946L187.687 11.928L188.203 11.8925L187.829 6.44402Z" fill="white"/>
<path d="M190.624 6.27705L190.107 6.30347L190.386 11.7573L190.903 11.7309L190.624 6.27705Z" fill="white"/>
<path d="M193.382 6.16966L192.865 6.18709L193.049 11.6452L193.566 11.6278L193.382 6.16966Z" fill="white"/>
<path d="M196.177 6.11836L195.66 6.12674L195.748 11.5869L196.265 11.5785L196.177 6.11836Z" fill="white"/>
<path d="M198.994 6.1243L198.477 6.12366L198.47 11.5848L198.987 11.5854L198.994 6.1243Z" fill="white"/>
<path d="M201.307 6.13395L201.205 11.5939L201.722 11.6036L201.824 6.14366L201.307 6.13395Z" fill="white"/>
<path d="M204.093 6.18429L203.894 11.6419L204.411 11.6608L204.61 6.20314L204.093 6.18429Z" fill="white"/>
<path d="M206.886 6.3014L206.591 11.7545L207.108 11.7825L207.403 6.32932L206.886 6.3014Z" fill="white"/>
<path d="M209.684 6.45641L209.299 11.904L209.815 11.9405L210.2 6.49291L209.684 6.45641Z" fill="white"/>
<path d="M212.491 6.66579L212.01 12.1056L212.525 12.1512L213.006 6.7114L212.491 6.66579Z" fill="white"/>
<path d="M215.244 6.96668L214.667 12.3971L215.181 12.4518L215.759 7.02144L215.244 6.96668Z" fill="white"/>
<path d="M218.051 7.26473L217.378 12.6841L217.891 12.7478L218.564 7.32848L218.051 7.26473Z" fill="white"/>
<path d="M220.81 7.64774L220.041 13.0544L220.553 13.1273L221.322 7.72059L220.81 7.64774Z" fill="white"/>
<path d="M223.586 8.02506L222.726 13.418L223.236 13.4995L224.097 8.10655L223.586 8.02506Z" fill="white"/>
<path d="M226.366 8.48703L225.409 13.864L225.918 13.9546L226.875 8.57768L226.366 8.48703Z" fill="white"/>
<path d="M229.113 9.00915L228.066 14.3691L228.574 14.4683L229.621 9.10834L229.113 9.00915Z" fill="white"/>
<path d="M231.846 9.5692L230.703 14.9093L231.209 15.0176L232.352 9.67744L231.846 9.5692Z" fill="white"/>
<path d="M234.551 10.1576L233.318 15.4775L233.822 15.5943L235.055 10.2745L234.551 10.1576Z" fill="white"/>
<path d="M237.321 10.8297L235.993 16.127L236.495 16.2529L237.823 10.9556L237.321 10.8297Z" fill="white"/>
<path d="M240.033 11.5113L238.613 16.7845L239.113 16.919L240.533 11.6458L240.033 11.5113Z" fill="white"/>
<path d="M242.694 12.2492L241.183 17.4971L241.68 17.6403L243.191 12.3924L242.694 12.2492Z" fill="white"/>
<path d="M245.398 13.039L243.796 18.26L244.291 18.4118L245.893 13.1907L245.398 13.039Z" fill="white"/>
<path d="M248.037 13.9103L246.345 19.1029L246.837 19.2631L248.529 14.0706L248.037 13.9103Z" fill="white"/>
<path d="M250.754 14.7785L248.971 19.9404L249.46 20.1093L251.243 14.9475L250.754 14.7785Z" fill="white"/>
<path d="M253.395 15.7373L251.521 20.8668L252.007 21.0443L253.881 15.9148L253.395 15.7373Z" fill="white"/>
<path d="M255.98 16.6747L254.017 21.7708L254.499 21.9569L256.463 16.8608L255.98 16.6747Z" fill="white"/>
<path d="M258.597 17.7417L256.542 22.8016L257.021 22.9963L259.076 17.9363L258.597 17.7417Z" fill="white"/>
<path d="M261.156 18.8198L259.018 23.8447L259.494 24.0473L261.632 19.0224L261.156 18.8198Z" fill="white"/>
<path d="M263.72 19.9246L261.489 24.9095L261.962 25.1208L264.192 20.1359L263.72 19.9246Z" fill="white"/>
<path d="M266.284 21.0708L263.969 26.0168L264.437 26.2361L266.752 21.2901L266.284 21.0708Z" fill="white"/>
<path d="M268.831 22.2879L266.43 27.1929L266.895 27.4203L269.296 22.5154L268.831 22.2879Z" fill="white"/>
<path d="M271.336 23.516L268.849 28.3783L269.31 28.6139L271.797 23.7517L271.336 23.516Z" fill="white"/>
<path d="M273.799 24.8337L271.227 29.6517L271.683 29.8953L274.255 25.0774L273.799 24.8337Z" fill="white"/>
<path d="M276.271 26.1369L273.621 30.9116L274.073 31.1627L276.723 26.388L276.271 26.1369Z" fill="white"/>
<path d="M278.73 27.5637L275.993 32.2897L276.441 32.5489L279.177 27.823L278.73 27.5637Z" fill="white"/>
<path d="M281.129 28.9767L278.312 33.6556L278.756 33.9224L281.572 29.2435L281.129 28.9767Z" fill="white"/>
<path d="M283.506 30.4305L280.604 35.0569L281.042 35.3318L283.944 30.7054L283.506 30.4305Z" fill="white"/>
<path d="M285.91 31.9051L282.929 36.4811L283.362 36.7635L286.343 32.1875L285.91 31.9051Z" fill="white"/>
<path d="M288.224 33.4389L285.163 37.9619L285.592 38.2518L288.652 33.7288L288.224 33.4389Z" fill="white"/>
<path d="M290.502 35.0496L287.366 39.52L287.789 39.8172L290.926 35.3467L290.502 35.0496Z" fill="white"/>
<path d="M292.788 36.6809L289.571 41.0939L289.989 41.3986L293.206 36.9856L292.788 36.6809Z" fill="white"/>
<path d="M295.053 38.3703L291.762 42.7286L292.175 43.0404L295.465 38.6821L295.053 38.3703Z" fill="white"/>
<path d="M297.282 40.088L293.916 44.3883L294.323 44.7072L297.689 40.4069L297.282 40.088Z" fill="white"/>
<path d="M299.454 41.7711L296.014 46.0123L296.415 46.3382L299.856 42.097L299.454 41.7711Z" fill="white"/>
<path d="M301.647 43.5548L298.131 47.7337L298.527 48.0668L302.043 43.8879L301.647 43.5548Z" fill="white"/>
<path d="M303.755 45.3903L300.167 49.5074L300.557 49.8474L304.145 45.7303L303.755 45.3903Z" fill="white"/>
<path d="M305.875 47.2518L302.216 51.3066L302.6 51.6532L306.259 47.5984L305.875 47.2518Z" fill="white"/>
<path d="M307.914 49.134L304.186 53.1247L304.564 53.478L308.292 49.4872L307.914 49.134Z" fill="white"/>
<path d="M309.944 51.0513L306.148 54.977L306.52 55.3367L310.316 51.411L309.944 51.0513Z" fill="white"/>
<path d="M311.972 53.0325L308.105 56.8893L308.47 57.2556L312.337 53.3989L311.972 53.0325Z" fill="white"/>
<path d="M313.939 55.0222L310.004 58.809L310.363 59.1818L314.298 55.395L313.939 55.0222Z" fill="white"/>
<path d="M315.886 57.0505L311.886 60.769L312.239 61.148L316.238 57.4295L315.886 57.0505Z" fill="white"/>
<path d="M317.723 59.1255L313.66 62.774L314.006 63.1589L318.069 59.5105L317.723 59.1255Z" fill="white"/>
<path d="M319.618 61.21L315.492 64.788L315.831 65.1788L319.957 61.6009L319.618 61.21Z" fill="white"/>
<path d="M321.424 63.3224L317.236 66.8282L317.568 67.225L321.756 63.7192L321.424 63.3224Z" fill="white"/>
<path d="M323.172 65.5007L318.922 68.9305L319.247 69.3331L323.497 65.9033L323.172 65.5007Z" fill="white"/>
<path d="M324.912 67.6759L320.604 71.0314L320.921 71.4396L325.23 68.0841L324.912 67.6759Z" fill="white"/>
<path d="M326.607 69.879L322.24 73.1591L322.551 73.5727L326.917 70.2927L326.607 69.879Z" fill="white"/>
<path d="M328.325 72.1555L323.904 75.3617L324.208 75.7805L328.629 72.5743L328.325 72.1555Z" fill="white"/>
<path d="M329.947 74.4305L325.469 77.5559L325.765 77.9801L330.243 74.8548L329.947 74.4305Z" fill="white"/>
<path d="M331.525 76.714L326.995 79.7633L327.284 80.1925L331.814 77.1432L331.525 76.714Z" fill="white"/>
<path d="M333.062 79.062L328.479 82.0315L328.76 82.4657L333.344 79.4962L333.062 79.062Z" fill="white"/>
<path d="M334.588 81.4515L329.955 84.3419L330.228 84.7808L334.862 81.8905L334.588 81.4515Z" fill="white"/>
<path d="M336.075 83.8599L331.39 86.665L331.655 87.1089L336.341 84.3038L336.075 83.8599Z" fill="white"/>
<path d="M337.471 86.2691L332.737 88.9933L332.995 89.4417L337.729 86.7176L337.471 86.2691Z" fill="white"/>
<path d="M338.845 88.6539L334.064 91.2928L334.314 91.7458L339.095 89.1068L338.845 88.6539Z" fill="white"/>
<path d="M340.203 91.1416L335.378 93.7007L335.621 94.1578L340.445 91.5986L340.203 91.1416Z" fill="white"/>
<path d="M341.504 93.5991L336.635 96.0741L336.87 96.5353L341.738 94.0603L341.504 93.5991Z" fill="white"/>
<path d="M342.734 96.1525L337.823 98.5417L338.049 99.0069L342.96 96.6177L342.734 96.1525Z" fill="white"/>
<path d="M343.94 98.644L338.988 100.947L339.206 101.416L344.158 99.1131L343.94 98.644Z" fill="white"/>
<path d="M345.129 101.211L340.139 103.429L340.349 103.902L345.339 101.683L345.129 101.211Z" fill="white"/>
<path d="M346.24 103.78L341.21 105.906L341.411 106.383L346.442 104.256L346.24 103.78Z" fill="white"/>
<path d="M347.297 106.358L342.232 108.4L342.425 108.88L347.49 106.838L347.297 106.358Z" fill="white"/>
<path d="M348.342 108.922L343.241 110.873L343.426 111.356L348.527 109.405L348.342 108.922Z" fill="white"/>
<path d="M349.264 111.572L344.13 113.433L344.306 113.919L349.44 112.058L349.264 111.572Z" fill="white"/>
<path d="M350.207 114.2L345.041 115.97L345.209 116.459L350.375 114.689L350.207 114.2Z" fill="white"/>
<path d="M351.159 116.88L345.962 118.559L346.121 119.051L351.318 117.373L351.159 116.88Z" fill="white"/>
<path d="M351.97 119.523L346.745 121.111L346.896 121.606L352.121 120.018L351.97 119.523Z" fill="white"/>
<path d="M352.786 122.197L347.534 123.695L347.676 124.193L352.928 122.695L352.786 122.197Z" fill="white"/>
<path d="M353.479 124.897L348.203 126.304L348.336 126.804L353.613 125.397L353.479 124.897Z" fill="white"/>
<path d="M354.221 127.651L348.92 128.966L349.045 129.469L354.346 128.153L354.221 127.651Z" fill="white"/>
<path d="M354.821 130.343L349.498 131.563L349.614 132.067L354.936 130.847L354.821 130.343Z" fill="white"/>
<path d="M355.476 133.067L350.133 134.197L350.24 134.703L355.583 133.574L355.476 133.067Z" fill="white"/>
<path d="M356.03 135.828L350.667 136.862L350.765 137.37L356.128 136.336L356.03 135.828Z" fill="white"/>
<path d="M356.565 138.575L351.186 139.518L351.275 140.028L356.654 139.084L356.565 138.575Z" fill="white"/>
<path d="M357.004 141.336L351.609 142.183L351.69 142.694L357.085 141.847L357.004 141.336Z" fill="white"/>
<path d="M357.417 144.153L352.009 144.909L352.08 145.421L357.489 144.666L357.417 144.153Z" fill="white"/>
<path d="M357.759 146.901L352.338 147.561L352.401 148.074L357.822 147.415L357.759 146.901Z" fill="white"/>
<path d="M358.124 149.687L352.692 150.252L352.746 150.766L358.178 150.202L358.124 149.687Z" fill="white"/>
<path d="M358.358 152.445L352.917 152.913L352.962 153.429L358.403 152.96L358.358 152.445Z" fill="white"/>
<path d="M358.599 155.253L353.151 155.625L353.186 156.141L358.635 155.769L358.599 155.253Z" fill="white"/>
<path d="M358.77 158.056L353.316 158.337L353.343 158.853L358.797 158.572L358.77 158.056Z" fill="white"/>
<path d="M358.9 160.867L353.441 161.052L353.459 161.569L358.917 161.384L358.9 160.867Z" fill="white"/>
<path d="M358.937 163.665L353.477 163.754L353.485 164.272L358.945 164.182L358.937 163.665Z" fill="white"/>
<path d="M358.436 166.996L353.55 166.99L353.55 166.416L359.011 166.422C358.954 166.767 358.723 166.997 358.436 166.996Z" fill="white"/>
<path d="M336.422 164.209L336.424 163.232L339.585 163.236C339.93 163.237 340.333 163.237 340.793 163.295C340.793 163.295 340.678 163.237 340.563 163.122C340.448 163.007 340.218 162.777 339.874 162.489L340.507 161.915L341.827 163.354L341.826 164.274L336.422 164.267L336.422 164.209Z" fill="white"/>
<path d="M341.938 166.803C341.938 167.205 341.822 167.55 341.592 167.837C341.362 168.067 341.017 168.239 340.614 168.238C340.384 168.238 340.154 168.18 339.925 168.065C339.695 167.95 339.523 167.72 339.351 167.49C339.12 167.834 338.89 168.006 338.66 168.179C338.43 168.293 338.142 168.35 337.912 168.35C337.452 168.35 337.108 168.234 336.821 167.946C336.534 167.659 336.419 167.314 336.42 166.854C336.42 166.394 336.536 165.991 336.823 165.762C337.054 165.475 337.456 165.36 337.916 165.361C338.203 165.361 338.491 165.419 338.721 165.534C338.95 165.65 339.18 165.88 339.352 166.167C339.582 165.938 339.755 165.708 339.985 165.593C340.215 165.479 340.445 165.421 340.675 165.422C341.078 165.422 341.422 165.538 341.652 165.825C341.767 166.055 341.939 166.401 341.938 166.803ZM337.857 166.281C337.627 166.28 337.455 166.338 337.34 166.395C337.225 166.51 337.167 166.625 337.167 166.797C337.167 166.97 337.224 167.142 337.339 167.2C337.454 167.315 337.626 167.315 337.856 167.315C338.029 167.316 338.144 167.258 338.316 167.201C338.431 167.144 338.604 166.971 338.777 166.799L338.834 166.742C338.719 166.569 338.604 166.454 338.432 166.396C338.26 166.339 338.087 166.281 337.857 166.281ZM341.133 166.802C341.134 166.687 341.076 166.572 340.961 166.457C340.847 166.399 340.732 166.342 340.502 166.341C340.329 166.341 340.214 166.398 340.099 166.456C339.984 166.513 339.869 166.628 339.696 166.8C339.811 166.973 339.926 167.088 340.098 167.146C340.213 167.203 340.386 167.261 340.558 167.261C340.903 167.262 341.133 167.089 341.133 166.802Z" fill="white"/>
<path d="M339.114 171.801C338.137 171.8 337.448 171.684 336.988 171.453C336.528 171.223 336.356 170.82 336.357 170.303C336.358 169.785 336.588 169.383 337.048 169.154C337.508 168.924 338.198 168.81 339.176 168.812C340.153 168.813 340.843 168.929 341.302 169.159C341.762 169.39 341.991 169.792 341.991 170.31C341.99 170.827 341.76 171.229 341.357 171.459C340.839 171.688 340.092 171.802 339.114 171.801ZM339.117 169.846C338.37 169.845 337.852 169.902 337.565 169.959C337.277 170.016 337.162 170.131 337.162 170.304C337.162 170.419 337.219 170.534 337.334 170.591C337.449 170.649 337.621 170.707 337.909 170.764C338.196 170.822 338.598 170.823 339.116 170.823C339.863 170.824 340.38 170.768 340.668 170.71C340.955 170.653 341.071 170.538 341.071 170.309C341.071 170.136 340.956 170.021 340.669 169.963C340.382 169.905 339.864 169.847 339.117 169.846Z" fill="white"/>
<path d="M333.922 140.35L333.751 139.372L336.913 138.801C337.258 138.744 337.661 138.687 338.121 138.63C338.121 138.63 338.006 138.573 337.891 138.458C337.776 138.342 337.489 138.17 337.087 137.939L337.605 137.25L339.156 138.459L339.327 139.322L333.922 140.35Z" fill="white"/>
<path d="M334.151 141.788L338.864 142.483L338.521 140.643L339.384 140.472L339.897 143.347L339.207 143.461L334.379 142.823L334.151 141.788Z" fill="white"/>
<path d="M337.881 147.311C336.903 147.482 336.213 147.481 335.696 147.308C335.237 147.135 334.95 146.79 334.835 146.272C334.721 145.755 334.894 145.352 335.297 145.066C335.699 144.779 336.389 144.55 337.309 144.378C338.287 144.207 338.977 144.208 339.494 144.381C339.954 144.554 340.241 144.899 340.355 145.359C340.469 145.877 340.296 146.279 339.894 146.566C339.606 146.91 338.916 147.14 337.881 147.311ZM337.596 145.413C336.848 145.527 336.331 145.642 336.101 145.756C335.87 145.871 335.755 145.986 335.755 146.216C335.755 146.331 335.87 146.446 335.985 146.446C336.1 146.504 336.33 146.504 336.559 146.504C336.847 146.505 337.192 146.448 337.767 146.333C338.514 146.219 338.974 146.105 339.262 145.99C339.492 145.876 339.607 145.703 339.607 145.531C339.55 145.358 339.435 145.243 339.148 145.243C338.803 145.242 338.286 145.299 337.596 145.413Z" fill="white"/>
<path d="M327.34 117.232L326.996 116.311L329.986 115.223C330.331 115.108 330.676 114.994 331.137 114.879C331.079 114.879 331.022 114.822 330.849 114.764C330.677 114.706 330.39 114.591 329.987 114.418L330.391 113.671L332.114 114.593L332.4 115.456L327.34 117.232Z" fill="white"/>
<path d="M329.869 117.465C330.904 117.064 331.709 116.95 332.341 117.123C332.916 117.296 333.375 117.699 333.604 118.332C333.662 118.447 333.662 118.562 333.719 118.677C333.719 118.792 333.776 118.849 333.776 118.907L332.971 119.193C332.971 119.021 332.914 118.848 332.857 118.676C332.742 118.388 332.627 118.215 332.455 118.1C332.283 117.985 332.053 117.927 331.765 117.927C331.478 117.927 331.133 117.984 330.73 118.098L330.73 118.156C330.96 118.156 331.133 118.214 331.305 118.329C331.477 118.444 331.592 118.559 331.649 118.789C331.764 119.134 331.706 119.421 331.533 119.766C331.303 120.053 330.958 120.283 330.44 120.512C329.922 120.684 329.405 120.741 329.003 120.625C328.6 120.51 328.313 120.222 328.141 119.762C327.97 119.302 328.028 118.9 328.316 118.498C328.604 118.038 329.121 117.751 329.869 117.465ZM328.947 119.361C329.004 119.476 329.119 119.591 329.291 119.591C329.464 119.649 329.751 119.592 330.039 119.477C330.326 119.362 330.499 119.248 330.614 119.133C330.729 119.018 330.787 118.845 330.73 118.73C330.672 118.615 330.557 118.5 330.385 118.5C330.213 118.442 330.04 118.5 329.81 118.557C329.465 118.671 329.235 118.786 329.062 118.958C328.947 119.073 328.889 119.246 328.947 119.361Z" fill="white"/>
<path d="M332.448 123.446C331.528 123.79 330.838 123.904 330.32 123.846C329.803 123.788 329.516 123.5 329.287 122.982C329.115 122.465 329.173 122.062 329.518 121.718C329.863 121.373 330.496 121.029 331.416 120.685C332.337 120.342 333.027 120.228 333.544 120.286C334.061 120.344 334.406 120.632 334.578 121.149C334.749 121.667 334.691 122.069 334.346 122.414C334.058 122.758 333.425 123.102 332.448 123.446ZM331.76 121.606C331.07 121.892 330.552 122.064 330.322 122.236C330.092 122.408 330.035 122.523 330.092 122.696C330.149 122.811 330.207 122.868 330.379 122.926C330.494 122.926 330.724 122.927 330.954 122.869C331.184 122.812 331.586 122.698 332.104 122.526C332.794 122.297 333.254 122.067 333.484 121.895C333.715 121.723 333.83 121.551 333.715 121.378C333.658 121.206 333.485 121.148 333.198 121.148C332.968 121.205 332.508 121.319 331.76 121.606Z" fill="white"/>
<path d="M316.789 95.6038L316.272 94.7409L319.034 93.1347C319.321 92.9626 319.666 92.7906 320.069 92.5612C320.012 92.5611 319.954 92.561 319.782 92.5033C319.609 92.4456 319.322 92.3878 318.862 92.2722L319.093 91.4677L320.989 92.0449L321.448 92.8503L316.789 95.6038Z" fill="white"/>
<path d="M321.1 96.2412C321.33 96.5864 321.329 96.9314 321.214 97.2761C321.098 97.6209 320.811 97.908 320.408 98.1949C319.89 98.4817 319.43 98.5961 318.97 98.4806C318.511 98.365 318.166 98.0772 317.937 97.617C317.707 97.2143 317.593 96.8118 317.593 96.4669L318.399 96.008C318.398 96.1804 318.398 96.3529 318.455 96.5254C318.513 96.7554 318.57 96.9279 318.627 97.043C318.914 97.5032 319.316 97.5612 319.834 97.2744C320.352 96.9876 320.467 96.6429 320.18 96.1826C320.066 96.01 319.951 95.8374 319.779 95.6648L319.837 95.2624L322.31 94.0583L323.457 96.0717L322.652 96.5306L321.906 95.265L320.871 95.7811C320.871 95.9535 320.985 96.0686 321.1 96.2412Z" fill="white"/>
<path d="M322.934 100.842C322.071 101.359 321.381 101.588 320.921 101.587C320.403 101.587 320.059 101.356 319.772 100.953C319.485 100.493 319.486 100.033 319.773 99.6313C320.061 99.2293 320.579 98.77 321.442 98.2537C322.305 97.7374 322.995 97.5083 323.455 97.5089C323.973 97.5095 324.317 97.7399 324.604 98.1427C324.891 98.6029 324.891 99.0053 324.603 99.4648C324.372 99.867 323.797 100.326 322.934 100.842ZM321.959 99.1167C321.326 99.5183 320.865 99.8051 320.693 99.9774C320.52 100.15 320.462 100.322 320.52 100.495C320.577 100.61 320.692 100.667 320.807 100.667C320.922 100.667 321.152 100.61 321.382 100.496C321.612 100.381 321.957 100.209 322.417 99.922C323.05 99.5204 323.51 99.291 323.683 99.0613C323.913 98.8891 323.914 98.7167 323.856 98.5441C323.742 98.3715 323.569 98.3713 323.339 98.4285C323.052 98.5431 322.591 98.7725 321.959 99.1167Z" fill="white"/>
<path d="M302.671 76.1558L302.039 75.4077L304.514 73.3413C304.802 73.1117 305.089 72.8821 305.492 72.5952C305.435 72.5951 305.377 72.5951 305.205 72.5948C305.032 72.5946 304.745 72.5943 304.285 72.5362L304.401 71.7316L306.355 71.9639L306.929 72.6545L302.671 76.1558Z" fill="white"/>
<path d="M306.289 78.6894L305.945 78.2866L305.081 79.0329L304.45 78.2848L305.313 77.5385L304.165 76.1574L304.798 75.6408L308.536 74.6682L309.225 75.4739L306.578 77.7125L306.922 78.1154L306.289 78.6894ZM305.946 76.9644L306.809 76.2182L307.212 75.9313L307.615 75.6443C307.327 75.7589 307.097 75.8161 306.867 75.8733L305.372 76.2739L305.946 76.9644Z" fill="white"/>
<path d="M309.621 80.2455C308.873 80.8769 308.24 81.2211 307.78 81.3355C307.32 81.4499 306.86 81.2769 306.516 80.874C306.172 80.4712 306.115 80.0112 306.288 79.6091C306.461 79.2069 306.921 78.6326 307.727 78.0012C308.475 77.3698 309.108 77.0257 309.625 76.9113C310.143 76.797 310.545 76.97 310.889 77.3728C311.234 77.7756 311.291 78.1781 311.118 78.6378C310.887 79.0399 310.427 79.6142 309.621 80.2455ZM308.358 78.7493C307.783 79.266 307.38 79.6104 307.265 79.8402C307.092 80.0699 307.092 80.2424 307.206 80.3575C307.264 80.4725 307.379 80.4727 307.551 80.4729C307.666 80.473 307.839 80.3583 308.069 80.2436C308.299 80.0714 308.587 79.8418 308.99 79.4974C309.565 79.0382 309.91 78.6363 310.083 78.4065C310.256 78.1768 310.256 78.0044 310.141 77.8318C310.026 77.7166 309.854 77.6589 309.566 77.831C309.394 77.9458 308.934 78.2327 308.358 78.7493Z" fill="white"/>
<path d="M285.388 59.4633L284.641 58.8301L286.714 56.3607C286.944 56.0736 287.232 55.7865 287.52 55.4994C287.462 55.4994 287.405 55.4993 287.232 55.5566C287.06 55.5564 286.772 55.6135 286.312 55.6704L286.256 54.8081L288.211 54.6955L288.9 55.2712L285.388 59.4633Z" fill="white"/>
<path d="M291.135 58.7215C290.905 59.0087 290.675 59.1234 290.387 59.238C290.1 59.2951 289.812 59.2948 289.525 59.1219C289.755 59.4097 289.869 59.6397 289.869 59.9272C289.869 60.2146 289.753 60.5019 289.523 60.789C289.178 61.191 288.832 61.363 288.372 61.42C287.97 61.4195 287.51 61.3039 287.108 60.9585C286.764 60.6707 286.477 60.3254 286.362 59.9803L286.938 59.2912C286.995 59.4637 287.11 59.6363 287.167 59.8089C287.282 59.9815 287.397 60.0966 287.512 60.2117C287.741 60.3844 287.914 60.4996 288.144 60.4999C288.316 60.5001 288.546 60.3854 288.719 60.1557C289.064 59.7537 289.007 59.2938 288.491 58.8907L288.261 58.718L288.721 58.1437L288.951 58.3164C289.181 58.4892 289.411 58.6044 289.583 58.6046C289.813 58.6049 289.986 58.4902 290.158 58.2604C290.274 58.0881 290.389 57.9158 290.331 57.8008C290.332 57.6283 290.274 57.5133 290.102 57.3981C289.872 57.2253 289.585 57.11 289.24 57.1671L289.298 56.3624C289.816 56.3055 290.276 56.4785 290.735 56.824C291.08 57.1119 291.309 57.4571 291.309 57.802C291.481 58.0896 291.365 58.4344 291.135 58.7215Z" fill="white"/>
<path d="M292.973 62.2322C292.34 62.9787 291.764 63.4379 291.304 63.6098C290.844 63.7817 290.384 63.7236 289.982 63.3782C289.58 63.0328 289.408 62.6302 289.524 62.1705C289.64 61.7107 289.985 61.0788 290.619 60.3323C291.252 59.5857 291.827 59.1266 292.287 58.9547C292.747 58.7828 293.207 58.8408 293.552 59.1862C293.954 59.5316 294.126 59.9342 294.01 60.3939C294.01 60.8538 293.606 61.4857 292.973 62.2322ZM291.48 60.9657C290.962 61.5399 290.674 61.9419 290.559 62.2292C290.443 62.459 290.443 62.6315 290.616 62.7467C290.73 62.8043 290.845 62.8619 290.96 62.8046C291.075 62.7472 291.248 62.6325 291.421 62.4602C291.593 62.288 291.881 62.0009 292.227 61.5989C292.687 61.0247 293.033 60.6227 293.148 60.3354C293.263 60.1056 293.263 59.8757 293.149 59.7605C293.034 59.6454 292.804 59.6451 292.574 59.8173C292.286 60.0469 291.941 60.3914 291.48 60.9657Z" fill="white"/>
<path d="M265.515 45.9866L264.653 45.4681L266.266 42.7108C266.439 42.4236 266.669 42.079 266.9 41.6769C266.9 41.6769 266.785 41.7342 266.612 41.7915C266.439 41.8487 266.152 41.9059 265.692 42.0778L265.52 41.2727L267.418 40.8152L268.222 41.2761L265.515 45.9866Z" fill="white"/>
<path d="M268.961 48.0023L266.433 46.562L266.836 45.9302L268.332 45.2422C268.734 45.0702 269.022 44.8981 269.252 44.7834C269.425 44.6687 269.597 44.5539 269.712 44.4391C269.828 44.3243 269.943 44.152 270.058 44.0371C270.173 43.8648 270.173 43.6924 270.173 43.5774C270.174 43.4624 270.059 43.3473 269.944 43.2322C269.829 43.1746 269.714 43.1169 269.599 43.1168C269.484 43.1166 269.254 43.1738 269.024 43.231L268.853 42.426C269.198 42.3115 269.543 42.2544 269.773 42.2547C270.003 42.255 270.232 42.3703 270.462 42.4855C270.864 42.7159 271.094 43.0037 271.151 43.3486C271.208 43.6936 271.15 44.0385 270.92 44.4406C270.804 44.6129 270.689 44.7852 270.574 44.9C270.459 45.0149 270.286 45.1871 270.114 45.3019C269.941 45.4166 269.769 45.5314 269.539 45.6461C269.308 45.7608 268.791 45.9901 267.928 46.3339L269.479 47.1981L268.961 48.0023Z" fill="white"/>
<path d="M273.446 47.4333C272.928 48.2949 272.467 48.8692 272.064 49.0987C271.662 49.3856 271.202 49.385 270.742 49.097C270.283 48.809 270.053 48.4638 270.111 47.9465C270.112 47.4292 270.4 46.7972 270.861 45.9355C271.38 45.0738 271.84 44.557 272.243 44.2701C272.646 43.9832 273.105 43.9837 273.565 44.2717C274.025 44.5597 274.254 44.9049 274.196 45.4222C274.195 45.8821 273.907 46.5716 273.446 47.4333ZM271.723 46.4539C271.32 47.0858 271.089 47.5454 271.031 47.8327C270.973 48.1201 270.973 48.2925 271.146 48.3502C271.26 48.4079 271.375 48.408 271.49 48.3507C271.605 48.2933 271.721 48.121 271.893 47.9487C272.066 47.719 272.239 47.3743 272.527 46.9148C272.93 46.2829 273.103 45.8233 273.218 45.536C273.276 45.2486 273.277 45.0762 273.104 45.0185C272.932 44.9033 272.759 44.9606 272.587 45.1903C272.414 45.3625 272.126 45.8221 271.723 46.4539Z" fill="white"/>
<path d="M243.567 36.1872L242.648 35.8411L243.744 32.8532C243.859 32.5084 244.032 32.1637 244.205 31.7616C244.205 31.7616 244.09 31.8189 243.975 31.9337C243.802 31.991 243.572 32.1632 243.112 32.3351L242.768 31.5873L244.608 30.8423L245.47 31.1308L243.567 36.1872Z" fill="white"/>
<path d="M246.841 37.3982L245.922 37.0522L247.018 34.0642C247.133 33.7195 247.306 33.3748 247.479 32.9726C247.479 32.9726 247.364 33.0299 247.249 33.1448C247.077 33.202 246.846 33.3742 246.386 33.5461L246.042 32.7984L247.883 32.0533L248.745 32.3418L246.841 37.3982Z" fill="white"/>
<path d="M251.615 36.2542C251.268 37.1735 250.923 37.8055 250.577 38.1499C250.232 38.4944 249.772 38.5514 249.255 38.3783C248.738 38.2052 248.508 37.86 248.394 37.3424C248.337 36.825 248.453 36.1353 248.799 35.216C249.145 34.2966 249.491 33.6647 249.894 33.3203C250.296 32.9759 250.699 32.9189 251.159 33.0919C251.676 33.265 251.905 33.6102 252.02 34.0702C252.076 34.5877 251.961 35.3349 251.615 36.2542ZM249.776 35.5621C249.488 36.2516 249.372 36.7688 249.314 37.0562C249.314 37.3436 249.371 37.5161 249.543 37.5738C249.658 37.6314 249.773 37.5741 249.888 37.5168C250.003 37.4594 250.119 37.2871 250.234 37.0573C250.349 36.8275 250.522 36.4253 250.695 35.9656C250.926 35.2761 251.099 34.7589 251.099 34.4715C251.1 34.1841 251.042 34.0115 250.87 33.9538C250.698 33.8962 250.525 33.9534 250.352 34.1832C250.237 34.413 250.007 34.8726 249.776 35.5621Z" fill="white"/>
<path d="M220.235 30.3521L219.258 30.1784L219.836 27.0174C219.894 26.6726 220.01 26.2703 220.125 25.8681C220.125 25.8681 220.01 25.9254 219.895 26.0402C219.78 26.1551 219.492 26.3272 219.147 26.6142L218.688 25.9238L220.357 24.8336L221.219 25.0071L220.235 30.3521Z" fill="white"/>
<path d="M224.721 28.4032C224.547 29.3802 224.316 30.0697 223.971 30.4142C223.683 30.8163 223.223 30.9307 222.706 30.8726C222.189 30.7569 221.844 30.4691 221.73 30.0091C221.558 29.549 221.616 28.8017 221.79 27.8247C221.963 26.8476 222.194 26.1581 222.54 25.7561C222.828 25.3541 223.288 25.1822 223.747 25.2977C224.265 25.4133 224.609 25.6437 224.724 26.1612C224.895 26.6788 224.895 27.4261 224.721 28.4032ZM222.767 28.0558C222.651 28.803 222.593 29.3203 222.592 29.6077C222.592 29.8952 222.707 30.0103 222.879 30.068C222.994 30.0681 223.109 30.0683 223.167 29.9534C223.282 29.8385 223.34 29.6661 223.397 29.4363C223.455 29.2064 223.571 28.8041 223.629 28.2868C223.745 27.5397 223.803 27.0224 223.803 26.7349C223.803 26.4475 223.689 26.2749 223.516 26.2747C223.344 26.217 223.171 26.3318 223.056 26.619C223.056 26.7915 222.94 27.3087 222.767 28.0558Z" fill="white"/>
<path d="M228.169 29.0395C227.995 30.0166 227.765 30.7061 227.419 31.0506C227.131 31.4527 226.671 31.5671 226.154 31.5089C225.637 31.3933 225.292 31.1055 225.178 30.6454C225.006 30.1853 225.064 29.4381 225.238 28.4611C225.412 27.484 225.643 26.7945 225.988 26.3925C226.276 25.9905 226.736 25.8186 227.196 25.9341C227.713 26.0497 228.058 26.2801 228.172 26.7976C228.401 27.3153 228.343 28.005 228.169 29.0395ZM226.273 28.6923C226.157 29.4395 226.098 29.9568 226.098 30.2442C226.098 30.5316 226.213 30.6467 226.385 30.7044C226.5 30.7046 226.615 30.7047 226.673 30.5898C226.788 30.475 226.845 30.3026 226.903 30.0727C226.961 29.8428 227.076 29.4406 227.135 28.9233C227.25 28.1761 227.309 27.6588 227.309 27.3714C227.309 27.084 227.194 26.9114 227.022 26.9112C226.85 26.8535 226.677 26.9682 226.562 27.2555C226.504 27.4279 226.388 27.9451 226.273 28.6923Z" fill="white"/>
<path d="M197.814 30.6123C197.808 35.2112 196.254 37.4512 193.207 37.4475C192.689 37.4468 192.287 37.3888 191.942 37.3309L191.944 35.4914C192.289 35.6068 192.634 35.6647 192.979 35.6651C193.899 35.6663 194.589 35.3797 195.05 34.7479C195.51 34.1161 195.799 33.1392 195.858 31.7596L195.801 31.7596C195.628 32.1618 195.397 32.5064 195.052 32.7359C194.707 32.9654 194.362 33.08 193.902 33.0794C193.097 33.0784 192.465 32.7327 192.006 32.0998C191.547 31.4094 191.318 30.5468 191.32 29.3971C191.321 28.1324 191.61 27.0981 192.186 26.4089C192.761 25.6623 193.567 25.3184 194.544 25.3196C195.579 25.3209 196.44 25.7818 196.957 26.7023C197.53 27.5652 197.816 28.8878 197.814 30.6123ZM194.542 27.1592C194.197 27.1587 193.967 27.3309 193.736 27.6755C193.563 28.0202 193.448 28.595 193.447 29.3423C193.446 29.9746 193.503 30.4346 193.675 30.7797C193.847 31.1248 194.077 31.2976 194.422 31.298C194.709 31.2983 194.997 31.1262 195.227 30.7816C195.457 30.437 195.573 30.0347 195.573 29.5748C195.574 28.885 195.46 28.31 195.288 27.8499C195.116 27.3898 194.887 27.1596 194.542 27.1592Z" fill="white"/>
<path d="M205.574 31.4261C205.571 33.5531 205.282 35.1049 204.763 36.0815C204.245 37.0581 203.439 37.517 202.29 37.5156C201.14 37.5142 200.336 37.0533 199.819 36.0754C199.303 35.0975 199.075 33.5451 199.078 31.4181C199.081 29.2912 199.37 27.7394 199.888 26.7628C200.407 25.7862 201.212 25.3273 202.362 25.3287C203.512 25.3301 204.316 25.791 204.832 26.7689C205.291 27.6317 205.577 29.2417 205.574 31.4261ZM201.262 31.4208C201.26 33.0879 201.316 34.1802 201.488 34.7553C201.602 35.3303 201.89 35.6181 202.292 35.6186C202.579 35.6189 202.752 35.5041 202.925 35.2169C203.098 34.9872 203.156 34.5274 203.271 33.9527C203.329 33.3779 203.388 32.5157 203.389 31.366C203.391 29.7564 203.335 28.6066 203.164 28.0315C202.992 27.4564 202.762 27.1112 202.36 27.1107C201.958 27.1102 201.67 27.3973 201.554 27.972C201.323 28.6616 201.264 29.7537 201.262 31.4208Z" fill="white"/>
<path d="M171.837 25.635C172.24 25.578 172.584 25.6359 172.872 25.8087C173.159 25.9815 173.331 26.3267 173.388 26.7291C173.445 26.9591 173.387 27.2465 173.329 27.4189C173.272 27.6487 173.099 27.8785 172.869 28.1081C173.213 28.281 173.501 28.4538 173.673 28.684C173.845 28.9141 173.96 29.1442 174.017 29.4317C174.074 29.8917 174.016 30.2365 173.785 30.5812C173.555 30.8683 173.21 31.0978 172.808 31.1548C172.348 31.2117 171.945 31.1537 171.658 30.9809C171.371 30.7506 171.141 30.4629 171.084 30.003C171.027 29.7155 171.028 29.428 171.143 29.1407C171.258 28.8535 171.373 28.6237 171.661 28.3941C171.374 28.2213 171.144 28.0485 171.029 27.8759C170.857 27.7033 170.8 27.4732 170.743 27.1857C170.686 26.7833 170.744 26.4384 170.974 26.1513C171.089 25.9215 171.435 25.7495 171.837 25.635ZM171.951 26.4399C171.836 26.4398 171.721 26.5546 171.663 26.6695C171.606 26.7844 171.605 26.9569 171.605 27.1293C171.605 27.3018 171.662 27.4168 171.777 27.5319C171.835 27.647 172.007 27.7622 172.179 27.8773C172.294 27.705 172.409 27.5902 172.467 27.4178C172.525 27.3029 172.525 27.1305 172.468 26.9579C172.411 26.5555 172.239 26.3828 171.951 26.4399ZM172.004 29.7742C172.062 30.0042 172.119 30.1767 172.234 30.2918C172.349 30.4069 172.463 30.4646 172.636 30.4073C172.808 30.35 172.924 30.2927 172.981 30.1203C173.039 30.0054 173.039 29.7754 173.039 29.603C173.04 29.4305 172.925 29.3154 172.867 29.2004C172.753 29.0853 172.58 28.9701 172.351 28.7973L172.293 28.7398C172.178 28.9121 172.063 29.0269 172.005 29.1993C171.947 29.3717 171.947 29.5441 172.004 29.7742Z" fill="white"/>
<path d="M177.239 27.5395C177.41 28.517 177.409 29.2068 177.236 29.724C177.063 30.1836 176.718 30.4706 176.2 30.585C175.683 30.6993 175.28 30.5263 174.994 30.1236C174.707 29.7208 174.478 29.0307 174.306 28.1107C174.135 27.1333 174.136 26.4434 174.309 25.9263C174.482 25.4666 174.827 25.1796 175.287 25.0652C175.805 24.9509 176.207 25.1238 176.494 25.5266C176.838 25.8719 177.067 26.562 177.239 27.5395ZM175.284 27.882C175.398 28.6295 175.512 29.147 175.627 29.3771C175.742 29.6071 175.856 29.7222 176.086 29.7225C176.201 29.7227 176.316 29.6078 176.316 29.4929C176.374 29.378 176.374 29.148 176.375 28.9181C176.375 28.6307 176.318 28.2857 176.204 27.7107C176.09 26.9632 175.975 26.5032 175.861 26.2156C175.746 25.9855 175.574 25.8704 175.401 25.8701C175.229 25.9274 175.114 26.0422 175.113 26.3297C175.113 26.6171 175.17 27.1345 175.284 27.882Z" fill="white"/>
<path d="M148.597 37.9661L148.487 33.1946L146.705 33.8248L146.418 32.9622L149.179 31.9883L149.408 32.6209L149.632 37.565L148.597 37.9661Z" fill="white"/>
<path d="M153.431 33.3737C153.775 34.2939 153.889 34.9839 153.831 35.5012C153.773 36.0185 153.485 36.3056 152.967 36.5349C152.45 36.7067 152.047 36.6487 151.703 36.3033C151.358 35.958 151.014 35.3252 150.67 34.405C150.327 33.4848 150.212 32.7949 150.271 32.2776C150.329 31.7603 150.617 31.4157 151.134 31.2439C151.652 31.0721 152.054 31.1301 152.399 31.4754C152.743 31.7633 153.087 32.396 153.431 33.3737ZM151.591 34.0038C151.877 34.694 152.049 35.2115 152.221 35.4417C152.393 35.6719 152.508 35.7295 152.681 35.6722C152.796 35.6149 152.853 35.5575 152.911 35.3851C152.911 35.2701 152.911 35.0402 152.854 34.8101C152.797 34.5801 152.683 34.1776 152.511 33.66C152.282 32.9699 152.052 32.5097 151.88 32.2796C151.708 32.0494 151.536 31.9342 151.363 32.049C151.191 32.1063 151.133 32.2786 151.132 32.5661C151.19 32.8536 151.304 33.3136 151.591 34.0038Z" fill="white"/>
<path d="M126.109 46.6758C125.535 45.6978 125.306 44.9502 125.364 44.3179C125.423 43.6857 125.711 43.2261 126.343 42.882C126.458 42.8247 126.516 42.7673 126.631 42.7099C126.746 42.6526 126.804 42.6526 126.861 42.5952L127.263 43.343C127.09 43.4003 126.918 43.4576 126.802 43.5724C126.572 43.6871 126.4 43.8593 126.284 44.0891C126.169 44.2615 126.169 44.4914 126.226 44.7789C126.283 45.0664 126.398 45.354 126.57 45.7566L126.627 45.7567C126.628 45.5267 126.628 45.3543 126.685 45.1819C126.743 45.0095 126.916 44.8947 127.088 44.78C127.376 44.6079 127.721 44.6083 128.066 44.7237C128.41 44.8966 128.697 45.1844 128.984 45.6446C129.271 46.1623 129.386 46.6223 129.328 47.0247C129.27 47.427 129.039 47.7716 128.636 48.0011C128.234 48.2305 127.774 48.23 127.372 48.057C126.912 47.8265 126.51 47.3661 126.109 46.6758ZM128.178 47.2532C128.293 47.1959 128.35 47.0235 128.35 46.851C128.351 46.6786 128.236 46.4485 128.064 46.1033C127.949 45.8733 127.777 45.7006 127.605 45.5854C127.432 45.4702 127.317 45.4701 127.145 45.5848C127.03 45.6422 126.972 45.7571 126.972 45.987C126.972 46.1595 127.029 46.332 127.144 46.5621C127.316 46.8497 127.488 47.0799 127.66 47.1951C127.89 47.3103 128.062 47.3105 128.178 47.2532Z" fill="white"/>
<path d="M131.517 43.0622C132.034 43.9251 132.263 44.6152 132.262 45.0751C132.262 45.5924 132.031 45.9371 131.628 46.224C131.168 46.5109 130.708 46.5103 130.306 46.2224C129.904 45.9345 129.445 45.4165 128.929 44.5536C128.412 43.6907 128.183 43.0006 128.184 42.5407C128.184 42.0233 128.415 41.6787 128.818 41.3917C129.278 41.1049 129.68 41.1054 130.14 41.3934C130.599 41.6239 131.059 42.1993 131.517 43.0622ZM129.849 44.0374C130.251 44.6702 130.538 45.1304 130.71 45.3031C130.882 45.4758 131.054 45.5335 131.227 45.4762C131.342 45.4189 131.4 45.304 131.4 45.189C131.4 45.074 131.343 44.844 131.228 44.6139C131.113 44.3838 130.941 44.0387 130.654 43.5785C130.253 42.9456 130.023 42.4855 129.794 42.3127C129.622 42.0826 129.449 42.0823 129.277 42.1396C129.104 42.2544 129.104 42.4268 129.161 42.6568C129.218 42.9443 129.447 43.4045 129.849 44.0374Z" fill="white"/>
<path d="M106.375 59.4726C106.663 59.1855 107.008 59.1285 107.41 59.1864C107.755 59.2444 108.1 59.4747 108.444 59.8776C108.846 60.3379 109.018 60.798 108.96 61.2004C108.96 61.6602 108.729 62.0624 108.326 62.4068C107.981 62.6938 107.636 62.8658 107.291 62.9229L106.659 62.1748C106.832 62.175 107.004 62.1177 107.177 62.0604C107.35 62.0032 107.522 61.8884 107.695 61.7737C108.098 61.4292 108.098 61.0268 107.696 60.5665C107.352 60.1061 106.95 60.0482 106.547 60.3926C106.374 60.5073 106.259 60.6797 106.144 60.9095L105.741 60.909L104.134 58.7225L105.918 57.2301L106.492 57.9206L105.399 58.8391L106.088 59.7597C106.145 59.7023 106.26 59.5874 106.375 59.4726Z" fill="white"/>
<path d="M110.632 56.8337C111.264 57.5818 111.608 58.2145 111.722 58.6746C111.837 59.1346 111.664 59.5943 111.261 59.9387C110.858 60.2831 110.456 60.3401 109.996 60.1671C109.536 59.994 109.019 59.5335 108.388 58.7279C107.757 57.9798 107.412 57.3471 107.298 56.8296C107.184 56.3121 107.357 55.9099 107.76 55.5654C108.162 55.221 108.565 55.164 109.025 55.3371C109.427 55.5675 109.943 56.028 110.632 56.8337ZM109.079 58.0964C109.595 58.6719 109.94 59.0748 110.112 59.19C110.342 59.3627 110.514 59.3629 110.629 59.2481C110.744 59.1907 110.745 59.0758 110.745 58.9033C110.745 58.7883 110.63 58.6157 110.515 58.3856C110.343 58.1555 110.114 57.8678 109.769 57.465C109.31 56.8895 108.908 56.5441 108.678 56.3714C108.449 56.1986 108.276 56.1984 108.104 56.3132C107.988 56.428 107.931 56.6004 108.103 56.888C108.333 57.1183 108.619 57.521 109.079 58.0964Z" fill="white"/>
<path d="M91.9222 77.331L91.5768 77.733L92.4382 78.4813L91.8049 79.2279L90.9435 78.4795L89.7921 79.8577L89.1604 79.3396L87.5552 75.831L88.246 75.027L90.8876 77.2722L91.233 76.8703L91.9222 77.331ZM90.3118 77.9613L89.4505 77.213L89.0485 76.8676L88.704 76.5222C88.8762 76.7524 88.9909 76.9824 89.1056 77.2125L89.7362 78.593L90.3118 77.9613Z" fill="white"/>
<path d="M92.9042 73.7682C93.6507 74.4015 94.1099 74.9769 94.2818 75.437C94.4537 75.8971 94.3956 76.3569 94.0502 76.7589C93.7048 77.1608 93.3022 77.3328 92.8424 77.2173C92.3827 77.1017 91.7508 76.756 91.0043 76.1228C90.2577 75.4895 89.7986 74.9141 89.6267 74.454C89.4548 73.9939 89.5128 73.5341 89.8582 73.1896C90.2036 72.7876 90.6062 72.6156 91.0659 72.7312C91.5258 72.7317 92.1577 73.1349 92.9042 73.7682ZM91.6377 75.2613C92.2119 75.7793 92.6139 76.0673 92.9012 76.1826C93.131 76.2978 93.3035 76.2981 93.4187 76.1257C93.4763 76.0108 93.5339 75.8959 93.4766 75.7809C93.4192 75.6659 93.3045 75.4933 93.1322 75.3206C92.96 75.1479 92.6729 74.8601 92.2709 74.5147C91.6966 74.0541 91.2947 73.7087 91.0074 73.5934C90.7776 73.4781 90.5476 73.4779 90.4325 73.5927C90.3174 73.7075 90.3171 73.9375 90.4893 74.1676C90.6615 74.3978 91.0634 74.8007 91.6377 75.2613Z" fill="white"/>
<path d="M75.2302 95.9383C75.5175 96.1111 75.7471 96.3414 75.8618 96.5715C75.9764 96.859 75.9761 97.1465 75.9182 97.4338C76.1485 97.1467 76.3786 97.032 76.6661 96.9748C76.9536 96.9177 77.241 96.9756 77.5857 97.1484C78.0453 97.379 78.2748 97.7241 78.3893 98.1267C78.5037 98.5292 78.3882 98.989 78.1577 99.4486C77.9272 99.8507 77.6394 100.195 77.3517 100.367L76.5475 99.9065C76.7201 99.7917 76.8927 99.677 77.0078 99.5621C77.1804 99.4474 77.2956 99.275 77.3533 99.1027C77.526 98.8729 77.5263 98.643 77.5266 98.4131C77.4693 98.2405 77.3546 98.0679 77.0674 97.8951C76.6078 97.6071 76.2052 97.7791 75.8596 98.3535L75.6868 98.6407L75.0549 98.2375L75.2277 98.0078C75.4004 97.7781 75.4007 97.5481 75.401 97.3182C75.3438 97.0882 75.229 96.9156 74.9992 96.8003C74.8269 96.6851 74.6545 96.6274 74.482 96.6847C74.3095 96.742 74.1944 96.7993 74.1367 96.9717C74.0215 97.2015 73.9636 97.4889 74.0207 97.8339L73.2158 97.8904C73.1015 97.3728 73.1596 96.913 73.4476 96.396C73.6781 95.9939 73.9658 95.7643 74.3108 95.6498C74.5407 95.7075 74.8855 95.7654 75.2302 95.9383Z" fill="white"/>
<path d="M78.3934 93.5257C79.2551 94.0442 79.8294 94.5048 80.0588 94.9074C80.3457 95.3102 80.3452 95.7701 80.0572 96.2296C79.7692 96.6891 79.424 96.9187 78.9067 96.8605C78.3893 96.8599 77.7573 96.5717 76.8956 96.1107C76.034 95.5923 75.5172 95.1318 75.2302 94.729C74.9433 94.3263 74.9439 93.8664 75.2319 93.4069C75.5199 92.9473 75.8651 92.7178 76.3824 92.7759C76.8422 92.7765 77.5318 93.0073 78.3934 93.5257ZM77.4141 95.1916C78.046 95.5948 78.5056 95.8253 78.7929 95.8831C79.0803 95.941 79.2527 95.9412 79.3104 95.7688C79.3681 95.6539 79.3682 95.5389 79.3109 95.4239C79.2535 95.3089 79.0812 95.1937 78.909 95.021C78.6792 94.8483 78.3345 94.6754 77.875 94.3874C77.2432 93.9842 76.7835 93.8112 76.4962 93.6958C76.2088 93.638 76.0364 93.6378 75.9787 93.8102C75.8635 93.9825 75.9208 94.155 76.1505 94.3278C76.3227 94.5579 76.7822 94.8459 77.4141 95.1916Z" fill="white"/>
<path d="M68.8784 119.787L67.8977 122.545L67.2082 122.314L66.2326 120.934C65.9457 120.531 65.7735 120.301 65.6588 120.128C65.544 119.956 65.3717 119.84 65.2569 119.725C65.142 119.61 64.9696 119.552 64.7973 119.495C64.6249 119.437 64.4524 119.437 64.3374 119.437C64.2224 119.494 64.1073 119.609 64.0497 119.724C63.992 119.839 63.9919 119.954 64.0492 120.126C64.049 120.241 64.1638 120.414 64.2785 120.644L63.5307 120.988C63.3587 120.643 63.2441 120.355 63.1869 120.125C63.1872 119.895 63.1875 119.608 63.3028 119.378C63.4757 118.976 63.706 118.689 63.9937 118.516C64.3387 118.402 64.6836 118.402 65.1434 118.518C65.3158 118.576 65.4881 118.691 65.6604 118.806C65.8327 118.921 65.9475 119.036 66.1198 119.209C66.292 119.382 66.4068 119.554 66.579 119.727C66.6938 119.899 67.0381 120.417 67.4969 121.223L68.1313 119.556L68.8784 119.787Z" fill="white"/>
<path d="M67.5596 115.474C68.4789 115.82 69.1109 116.166 69.4553 116.569C69.7998 116.914 69.8567 117.374 69.6836 117.891C69.5105 118.409 69.1653 118.638 68.6478 118.752C68.1303 118.809 67.4407 118.693 66.5213 118.347C65.602 118.001 64.97 117.656 64.6256 117.253C64.2812 116.85 64.2242 116.447 64.3973 115.988C64.5703 115.471 64.9155 115.241 65.3756 115.127C65.8931 115.012 66.5828 115.128 67.5596 115.474ZM66.8675 117.313C67.557 117.601 68.0742 117.717 68.3616 117.775C68.649 117.775 68.8215 117.718 68.8792 117.545C68.9368 117.431 68.8795 117.316 68.8222 117.2C68.7648 117.085 68.5925 116.97 68.3627 116.855C68.1329 116.74 67.7307 116.567 67.271 116.394C66.5815 116.163 66.0643 115.99 65.7769 115.99C65.4895 115.989 65.317 116.046 65.2593 116.219C65.2016 116.391 65.2588 116.564 65.4886 116.736C65.7184 116.852 66.178 117.082 66.8675 117.313Z" fill="white"/>
<path d="M62.639 143.522L62.4653 144.499L59.3043 143.92C58.9595 143.862 58.5572 143.747 58.155 143.631C58.155 143.631 58.2123 143.746 58.3272 143.862C58.442 143.977 58.6141 144.264 58.9011 144.61L58.2107 145.069L57.1205 143.4L57.294 142.538L62.639 143.522Z" fill="white"/>
<path d="M60.6893 139.036C61.6664 139.209 62.3559 139.44 62.7004 139.785C63.1024 140.073 63.2168 140.533 63.1587 141.051C63.0431 141.568 62.7553 141.912 62.2952 142.027C61.8351 142.199 61.0879 142.14 60.1108 141.967C59.1338 141.793 58.4443 141.562 58.0423 141.217C57.6402 140.929 57.4684 140.469 57.5839 140.009C57.6995 139.492 57.9299 139.147 58.4474 139.033C58.965 138.861 59.7123 138.862 60.6893 139.036ZM60.3421 140.932C61.0892 141.048 61.6065 141.106 61.894 141.107C62.1814 141.107 62.2965 140.992 62.3542 140.82C62.3543 140.705 62.3545 140.59 62.2396 140.532C62.1248 140.417 61.9524 140.359 61.7225 140.302C61.4926 140.244 61.0904 140.128 60.5731 140.07C59.8259 139.954 59.3086 139.896 59.0212 139.896C58.7337 139.895 58.5611 140.01 58.5609 140.183C58.5032 140.355 58.618 140.528 58.9053 140.643C59.0777 140.701 59.5949 140.816 60.3421 140.932Z" fill="white"/>
<path d="M58.0134 165.015C58.9907 165.017 59.6804 165.132 60.14 165.363C60.5996 165.594 60.7715 165.996 60.7709 166.514C60.7703 167.031 60.5398 167.433 60.0797 167.662C59.6195 167.892 58.9295 168.006 57.9523 168.005C56.975 168.003 56.2853 167.888 55.8257 167.657C55.3661 167.427 55.1367 167.024 55.1373 166.507C55.138 165.989 55.3684 165.587 55.7711 165.358C56.2887 165.128 56.9787 165.014 58.0134 165.015ZM58.011 166.97C58.7583 166.971 59.2758 166.914 59.5633 166.857C59.8508 166.8 59.9659 166.685 59.9661 166.513C59.9662 166.398 59.9089 166.282 59.794 166.225C59.6791 166.167 59.5067 166.11 59.2194 166.052C58.932 165.994 58.5296 165.993 58.0122 165.993C57.2649 165.992 56.7475 166.049 56.46 166.106C56.1725 166.163 56.0574 166.278 56.0571 166.508C56.0569 166.68 56.1717 166.795 56.4591 166.853C56.7464 166.911 57.2637 166.969 58.011 166.97Z" fill="white"/>
<path d="M219.305 38.1118C219.707 38.1698 220.052 38.3427 220.224 38.6303C220.454 38.918 220.511 39.263 220.453 39.6654C220.395 39.8952 220.337 40.1251 220.165 40.2973C219.992 40.4696 219.762 40.6418 219.474 40.7564C219.761 41.0442 219.934 41.2743 219.991 41.5618C220.105 41.7919 220.105 42.0793 220.047 42.3667C219.989 42.8265 219.759 43.1136 219.471 43.3432C219.183 43.5728 218.781 43.6298 218.321 43.5718C217.861 43.5137 217.517 43.2833 217.287 42.9956C217.058 42.7079 217.001 42.3054 217.059 41.8456C217.116 41.5583 217.232 41.271 217.404 41.0413C217.577 40.8115 217.807 40.6394 218.095 40.5247C217.865 40.2945 217.751 40.0644 217.636 39.8343C217.579 39.6043 217.579 39.3744 217.579 39.087C217.637 38.6846 217.81 38.3974 218.155 38.1679C218.5 38.1108 218.903 38.0538 219.305 38.1118ZM218.036 42.0768C217.978 42.3066 218.035 42.4792 218.092 42.5942C218.15 42.7093 218.265 42.8244 218.437 42.8246C218.609 42.8823 218.782 42.825 218.897 42.7102C219.012 42.5954 219.07 42.423 219.128 42.1931C219.128 42.0206 219.128 41.9057 219.071 41.7331C219.013 41.5606 218.899 41.388 218.726 41.2153L218.669 41.1578C218.496 41.2725 218.324 41.3873 218.209 41.5021C218.151 41.6745 218.093 41.8469 218.036 42.0768ZM219.132 38.9164C219.017 38.9163 218.902 38.9161 218.787 39.031C218.672 39.1458 218.614 39.2607 218.614 39.4331C218.613 39.6056 218.613 39.7206 218.613 39.893C218.67 40.0081 218.728 40.1806 218.9 40.3533C219.073 40.2385 219.188 40.1237 219.303 40.0663C219.36 39.9514 219.418 39.8365 219.476 39.6642C219.534 39.2043 219.419 38.9743 219.132 38.9164Z" fill="white"/>
<path d="M223.727 41.7389C223.554 42.716 223.323 43.4055 222.977 43.75C222.689 44.1521 222.229 44.2665 221.712 44.2083C221.195 44.0927 220.85 43.8049 220.736 43.3448C220.564 42.8847 220.622 42.1375 220.796 41.1605C220.97 40.1834 221.201 39.4939 221.546 39.0919C221.834 38.6899 222.294 38.518 222.754 38.6335C223.271 38.7491 223.616 38.9795 223.73 39.497C223.902 40.0146 223.901 40.7619 223.727 41.7389ZM221.773 41.3916C221.657 42.1388 221.599 42.6561 221.599 42.9435C221.598 43.2309 221.713 43.3461 221.886 43.4038C222.001 43.4039 222.116 43.404 222.173 43.2891C222.288 43.1743 222.346 43.0019 222.404 42.772C222.462 42.5422 222.577 42.1399 222.635 41.6226C222.751 40.8754 222.809 40.3582 222.809 40.0707C222.81 39.7833 222.695 39.6107 222.523 39.6105C222.35 39.5528 222.178 39.6675 222.062 39.9548C222.062 40.1848 221.946 40.6445 221.773 41.3916Z" fill="white"/>
<path d="M238.321 48.4822L241.315 44.7493L239.533 44.1148L239.822 43.2529L242.58 44.2335L242.349 44.8656L239.298 48.8283L238.321 48.4822Z" fill="white"/>
<path d="M244.989 48.0305C244.643 48.9499 244.298 49.5818 243.895 49.9262C243.549 50.2707 243.09 50.3276 242.572 50.1545C242.055 49.9814 241.826 49.6362 241.711 49.1187C241.655 48.6013 241.77 47.9116 242.116 46.9922C242.462 46.0729 242.808 45.441 243.211 45.0965C243.614 44.7521 244.016 44.6951 244.476 44.8682C244.993 45.0413 245.223 45.3865 245.337 45.8465C245.509 46.3641 245.336 47.0537 244.989 48.0305ZM243.151 47.3384C242.862 48.0279 242.747 48.5451 242.689 48.8325C242.689 49.1199 242.746 49.2924 242.918 49.3501C243.033 49.4078 243.148 49.3504 243.263 49.2931C243.378 49.2357 243.494 49.0634 243.609 48.8336C243.724 48.6038 243.897 48.2016 244.07 47.742C244.301 47.0524 244.474 46.5352 244.474 46.2478C244.475 45.9604 244.417 45.7879 244.245 45.7302C244.073 45.6725 243.9 45.7297 243.727 45.9595C243.612 46.1893 243.439 46.6489 243.151 47.3384Z" fill="white"/>
<path d="M259.065 55.0041C259.641 54.0276 260.159 53.4534 260.734 53.1666C261.31 52.8799 261.884 52.9381 262.459 53.2837C262.574 53.3414 262.631 53.3989 262.746 53.4566C262.861 53.5142 262.918 53.5717 262.918 53.6292L262.515 54.376C262.4 54.2609 262.228 54.1458 262.113 54.0881C261.883 53.9729 261.653 53.8576 261.423 53.9148C261.193 53.9145 261.021 54.0293 260.791 54.2015C260.56 54.3736 260.388 54.6608 260.1 55.0054L260.157 55.0055C260.33 54.8907 260.502 54.776 260.675 54.7762C260.847 54.7764 261.02 54.7766 261.192 54.8918C261.479 55.0646 261.651 55.3522 261.709 55.6972C261.708 56.0421 261.593 56.4444 261.362 56.9615C261.074 57.4785 260.729 57.7655 260.326 57.9375C259.923 58.1094 259.521 58.0514 259.119 57.821C258.717 57.5906 258.487 57.2454 258.488 56.728C258.489 56.2681 258.662 55.6935 259.065 55.0041ZM259.58 57.0743C259.695 57.1319 259.867 57.1321 260.04 57.0173C260.212 56.9026 260.385 56.7303 260.558 56.4431C260.673 56.2133 260.788 55.9835 260.789 55.8111C260.789 55.6386 260.731 55.5236 260.617 55.4084C260.502 55.3508 260.329 55.3506 260.214 55.4079C260.042 55.4652 259.927 55.6375 259.811 55.8099C259.639 56.0971 259.523 56.3843 259.523 56.6143C259.408 56.8441 259.465 56.9591 259.58 57.0743Z" fill="white"/>
<path d="M264.867 57.8855C264.349 58.7471 263.888 59.3214 263.486 59.5508C263.083 59.8378 262.623 59.8372 262.164 59.5492C261.704 59.2612 261.475 58.916 261.533 58.3987C261.533 57.8813 261.822 57.2493 262.282 56.3876C262.801 55.526 263.261 55.0092 263.664 54.7223C264.067 54.4353 264.527 54.4359 264.986 54.7239C265.446 55.0119 265.675 55.3571 265.617 55.8744C265.617 56.3343 265.386 57.0238 264.867 57.8855ZM263.202 56.9061C262.798 57.538 262.568 57.9976 262.51 58.2849C262.452 58.5723 262.452 58.7448 262.624 58.8025C262.739 58.8601 262.854 58.8602 262.969 58.8029C263.084 58.7455 263.2 58.5732 263.372 58.401C263.545 58.1713 263.718 57.8265 264.006 57.367C264.409 56.7352 264.582 56.2755 264.697 55.9882C264.755 55.7009 264.755 55.5284 264.583 55.4707C264.411 55.3555 264.238 55.4128 264.065 55.6425C263.835 55.8147 263.547 56.2742 263.202 56.9061Z" fill="white"/>
<path d="M278.71 67.101C278.997 67.3887 279.169 67.6764 279.169 68.0788C279.168 68.4237 278.995 68.8259 278.708 69.2279C278.305 69.6873 277.902 69.9168 277.499 69.9737C277.039 70.0307 276.637 69.9152 276.235 69.5698C275.891 69.2819 275.661 68.9367 275.547 68.5917L276.18 67.8451C276.237 68.0177 276.294 68.1902 276.409 68.3628C276.524 68.5354 276.639 68.708 276.754 68.8231C277.155 69.1685 277.558 69.1115 277.961 68.6521C278.306 68.1927 278.307 67.8478 277.905 67.5024C277.733 67.3872 277.56 67.272 277.33 67.1567L277.216 66.7542L279.115 64.802L280.896 66.2989L280.32 66.988L279.229 66.0668L278.423 66.9281C278.423 66.9281 278.595 66.9858 278.71 67.101Z" fill="white"/>
<path d="M282.04 70.7838C281.407 71.5303 280.831 71.9895 280.371 72.1614C279.911 72.3332 279.451 72.2752 279.049 71.9298C278.647 71.5844 278.475 71.1818 278.591 70.722C278.706 70.2623 279.052 69.6304 279.685 68.8838C280.319 68.1373 280.894 67.6781 281.354 67.5062C281.814 67.3343 282.274 67.3924 282.619 67.7377C283.021 68.0831 283.193 68.4857 283.077 68.9455C283.076 69.4054 282.673 70.0372 282.04 70.7838ZM280.547 69.5172C280.029 70.0914 279.741 70.4935 279.626 70.7808C279.51 71.0106 279.51 71.183 279.682 71.2982C279.797 71.3558 279.912 71.4135 280.027 71.3561C280.142 71.2988 280.315 71.184 280.488 71.0118C280.66 70.8395 280.948 70.5525 281.293 70.1505C281.754 69.5762 282.099 69.1742 282.215 68.8869C282.33 68.6571 282.33 68.4272 282.216 68.3121C282.101 68.197 281.871 68.1967 281.641 68.3689C281.353 68.5984 281.008 68.9429 280.547 69.5172Z" fill="white"/>
<path d="M294.669 85.5736L294.324 85.1707L293.461 85.917L292.83 85.1689L293.693 84.4227L292.545 83.0416L293.178 82.525L296.916 81.5523L297.605 82.358L294.958 84.5967L295.302 84.9995L294.669 85.5736ZM294.326 83.8486L295.189 83.1023L295.592 82.8154L295.995 82.5285C295.707 82.6431 295.477 82.7003 295.247 82.7575L293.752 83.158L294.326 83.8486Z" fill="white"/>
<path d="M298.058 87.1299C297.31 87.7613 296.677 88.1055 296.217 88.2199C295.757 88.3343 295.297 88.1613 294.953 87.7584C294.609 87.3556 294.552 86.9531 294.725 86.4935C294.898 86.0338 295.358 85.517 296.164 84.8856C296.912 84.2542 297.545 83.9101 298.062 83.7957C298.58 83.6814 298.982 83.8544 299.326 84.2572C299.671 84.66 299.728 85.0625 299.555 85.5222C299.267 85.9242 298.806 86.4985 298.058 87.1299ZM296.795 85.6337C296.22 86.1504 295.817 86.4948 295.702 86.6671C295.529 86.8968 295.529 87.0693 295.643 87.1844C295.701 87.2995 295.816 87.2996 295.988 87.2998C296.103 87.3 296.276 87.1852 296.506 87.0705C296.736 86.8983 297.024 86.6688 297.427 86.3243C298.002 85.8652 298.347 85.4632 298.52 85.2335C298.693 85.0037 298.693 84.8313 298.578 84.6587C298.464 84.5436 298.291 84.4859 298.004 84.658C297.773 84.8301 297.371 85.1171 296.795 85.6337Z" fill="white"/>
<path d="M309.768 101.631C309.48 101.803 309.193 101.86 308.905 101.86C308.618 101.86 308.388 101.687 308.158 101.457C308.273 101.802 308.273 102.089 308.215 102.319C308.1 102.606 307.927 102.836 307.582 103.008C307.122 103.238 306.719 103.295 306.317 103.179C305.915 103.064 305.57 102.776 305.283 102.315C305.054 101.913 304.939 101.51 304.882 101.165L305.688 100.706C305.687 100.879 305.687 101.109 305.744 101.281C305.802 101.454 305.859 101.626 305.916 101.799C306.088 102.029 306.203 102.202 306.433 102.259C306.605 102.317 306.835 102.26 307.065 102.145C307.526 101.858 307.584 101.456 307.297 100.881L307.125 100.593L307.758 100.192L307.93 100.422C308.102 100.652 308.274 100.825 308.447 100.882C308.619 100.94 308.849 100.94 309.079 100.768C309.252 100.653 309.367 100.538 309.425 100.366C309.482 100.251 309.425 100.079 309.368 99.9061C309.253 99.676 308.966 99.5032 308.678 99.3879L309.024 98.641C309.541 98.7566 309.943 99.102 310.173 99.5622C310.402 99.9649 310.459 100.31 310.401 100.655C310.343 101.172 310.113 101.459 309.768 101.631Z" fill="white"/>
<path d="M310.338 105.599C309.475 106.115 308.784 106.344 308.325 106.343C307.807 106.343 307.463 106.112 307.176 105.71C306.889 105.249 306.889 104.79 307.177 104.388C307.465 103.985 307.983 103.526 308.846 103.01C309.709 102.494 310.399 102.265 310.859 102.265C311.376 102.266 311.721 102.496 312.008 102.899C312.295 103.359 312.294 103.761 312.006 104.221C311.718 104.623 311.2 105.082 310.338 105.599ZM309.305 103.93C308.672 104.332 308.212 104.619 308.039 104.791C307.866 104.963 307.809 105.136 307.866 105.308C307.923 105.423 308.038 105.481 308.153 105.481C308.268 105.481 308.498 105.424 308.728 105.309C308.958 105.195 309.303 105.022 309.764 104.736C310.397 104.334 310.857 104.105 311.029 103.875C311.26 103.703 311.26 103.53 311.203 103.358C311.088 103.185 310.915 103.185 310.685 103.242C310.455 103.299 309.995 103.529 309.305 103.93Z" fill="white"/>
<path d="M315.432 123.483L314.458 120.723L315.149 120.493L316.758 120.955C317.217 121.071 317.505 121.129 317.735 121.186C317.964 121.244 318.137 121.244 318.309 121.187C318.482 121.187 318.654 121.13 318.827 121.073C318.999 121.016 319.172 120.901 319.23 120.786C319.287 120.671 319.287 120.556 319.23 120.384C319.173 120.268 319.115 120.153 319.001 120.096C318.886 120.038 318.713 119.923 318.484 119.808L318.829 119.061C319.174 119.176 319.461 119.349 319.634 119.522C319.806 119.694 319.921 119.924 320.035 120.155C320.207 120.557 320.207 120.96 320.034 121.247C319.861 121.591 319.573 121.821 319.171 121.936C318.998 121.993 318.768 122.05 318.596 122.05C318.423 122.05 318.193 122.049 318.021 122.049C317.791 122.049 317.619 121.991 317.331 121.933C317.101 121.876 316.527 121.702 315.665 121.414L316.295 123.082L315.432 123.483Z" fill="white"/>
<path d="M319.166 125.959C318.246 126.303 317.556 126.417 317.039 126.359C316.521 126.301 316.234 126.013 316.005 125.496C315.833 124.978 315.891 124.576 316.236 124.231C316.582 123.887 317.214 123.543 318.135 123.199C319.055 122.855 319.745 122.741 320.262 122.799C320.779 122.857 321.124 123.145 321.296 123.663C321.468 124.18 321.41 124.582 321.064 124.927C320.777 125.214 320.144 125.616 319.166 125.959ZM318.536 124.062C317.846 124.348 317.328 124.52 317.098 124.692C316.868 124.864 316.81 124.979 316.868 125.152C316.925 125.267 316.982 125.324 317.155 125.382C317.27 125.382 317.5 125.382 317.73 125.325C317.96 125.268 318.362 125.154 318.88 124.982C319.57 124.753 320.03 124.523 320.26 124.351C320.49 124.179 320.606 124.007 320.491 123.834C320.434 123.661 320.261 123.604 319.974 123.603C319.744 123.718 319.226 123.832 318.536 124.062Z" fill="white"/>
<path d="M321.041 143.956L320.869 142.978L324.032 142.407C324.377 142.35 324.779 142.293 325.239 142.236C325.239 142.236 325.124 142.179 325.01 142.064C324.895 141.948 324.607 141.776 324.205 141.545L324.724 140.856L326.274 142.065L326.446 142.928L321.041 143.956Z" fill="white"/>
<path d="M324.428 147.524C323.451 147.695 322.761 147.694 322.244 147.521C321.784 147.348 321.497 147.003 321.383 146.485C321.268 145.968 321.441 145.565 321.844 145.279C322.247 144.992 322.937 144.763 323.857 144.591C324.834 144.42 325.524 144.421 326.041 144.594C326.501 144.767 326.788 145.112 326.902 145.572C327.017 146.09 326.844 146.492 326.441 146.779C326.096 147.066 325.405 147.352 324.428 147.524ZM324.085 145.569C323.338 145.683 322.821 145.797 322.59 145.912C322.36 146.026 322.245 146.141 322.245 146.371C322.245 146.486 322.36 146.601 322.475 146.602C322.59 146.659 322.819 146.659 323.049 146.66C323.337 146.66 323.682 146.603 324.257 146.489C325.004 146.375 325.464 146.26 325.752 146.146C325.982 146.031 326.097 145.859 326.097 145.686C326.04 145.514 325.925 145.399 325.638 145.398C325.293 145.398 324.833 145.455 324.085 145.569Z" fill="white"/>
<path d="M325.782 168.048C324.805 168.047 324.115 167.931 323.655 167.7C323.196 167.47 323.024 167.067 323.025 166.55C323.025 166.033 323.256 165.631 323.716 165.401C324.176 165.172 324.866 165.058 325.843 165.059C326.82 165.06 327.51 165.176 327.97 165.406C328.429 165.637 328.659 166.04 328.658 166.557C328.657 167.074 328.427 167.476 328.024 167.706C327.507 167.935 326.817 168.049 325.782 168.048ZM325.784 166.036C325.037 166.035 324.52 166.092 324.232 166.149C323.945 166.206 323.83 166.321 323.829 166.494C323.829 166.608 323.887 166.724 324.002 166.781C324.116 166.839 324.289 166.896 324.576 166.954C324.864 167.012 325.266 167.013 325.783 167.013C326.531 167.014 327.048 166.957 327.336 166.9C327.623 166.843 327.738 166.728 327.738 166.498C327.739 166.326 327.624 166.211 327.336 166.153C327.049 166.095 326.532 166.037 325.784 166.036Z" fill="white"/>
<path d="M74.0471 168.83L74.0459 169.807L70.8842 169.803C70.5393 169.802 70.1369 169.802 69.6771 169.744C69.6771 169.744 69.792 169.802 69.9068 169.917C70.0216 170.032 70.2513 170.262 70.5959 170.55L69.9628 171.124L68.6424 169.685L68.6436 168.765L74.0472 168.772L74.0471 168.83Z" fill="white"/>
<path d="M68.5313 166.236C68.5318 165.833 68.6472 165.488 68.8775 165.201C69.1078 164.914 69.4528 164.8 69.8552 164.8C70.0852 164.8 70.315 164.858 70.5449 164.973C70.7747 165.089 70.9468 165.319 71.119 165.549C71.3494 165.204 71.5795 165.032 71.8097 164.86C72.0398 164.745 72.3273 164.688 72.5572 164.688C73.0171 164.689 73.3619 164.804 73.6489 165.092C73.936 165.38 74.0505 165.725 74.05 166.185C74.0494 166.645 73.9339 167.047 73.6462 167.277C73.4159 167.564 73.0134 167.678 72.5535 167.678C72.2661 167.677 71.9787 167.619 71.7489 167.504C71.5191 167.389 71.2895 167.159 71.1174 166.871C70.8871 167.101 70.7144 167.33 70.4843 167.445C70.2542 167.56 70.0242 167.617 69.7943 167.617C69.3919 167.616 69.0471 167.501 68.8175 167.213C68.6453 166.983 68.5308 166.638 68.5313 166.236ZM69.3361 166.237C69.3359 166.352 69.3933 166.467 69.5081 166.582C69.623 166.639 69.7379 166.697 69.9679 166.697C70.1403 166.697 70.2554 166.64 70.3704 166.583C70.4854 166.525 70.6006 166.411 70.7732 166.238C70.6585 166.066 70.5436 165.951 70.3713 165.893C70.2564 165.835 70.084 165.778 69.9115 165.777C69.509 165.834 69.3364 165.949 69.3361 166.237ZM72.6121 166.758C72.8421 166.758 73.0146 166.701 73.1296 166.644C73.2448 166.529 73.3024 166.414 73.3026 166.241C73.3028 166.069 73.2455 165.896 73.1306 165.839C73.0158 165.724 72.8433 165.723 72.6134 165.723C72.4409 165.723 72.3259 165.78 72.1534 165.838C72.0383 165.895 71.8657 166.067 71.693 166.239L71.6354 166.297C71.7502 166.469 71.865 166.585 72.0374 166.642C72.2097 166.757 72.3822 166.758 72.6121 166.758Z" fill="white"/>
<path d="M71.2971 161.238C72.2744 161.239 72.9641 161.355 73.4237 161.585C73.8833 161.816 74.0552 162.218 74.0546 162.736C74.054 163.253 73.8235 163.655 73.3633 163.885C72.9032 164.114 72.2132 164.228 71.236 164.227C70.2587 164.226 69.569 164.11 69.1094 163.879C68.6498 163.649 68.4204 163.246 68.421 162.729C68.4216 162.211 68.6521 161.809 69.0548 161.58C69.5724 161.351 70.3199 161.237 71.2971 161.238ZM71.2947 163.192C72.042 163.193 72.5595 163.136 72.847 163.079C73.1345 163.022 73.2496 162.907 73.2498 162.735C73.2499 162.62 73.1926 162.505 73.0777 162.447C72.9628 162.39 72.7904 162.332 72.5031 162.274C72.2157 162.216 71.8133 162.216 71.2959 162.215C70.5486 162.214 70.0312 162.271 69.7437 162.328C69.4562 162.385 69.3411 162.5 69.3408 162.73C69.3406 162.902 69.4554 163.018 69.7427 163.075C70.0301 163.133 70.5474 163.191 71.2947 163.192Z" fill="white"/>
<path d="M75.5115 147.159L75.3379 148.136L72.1769 147.557C71.832 147.499 71.4298 147.384 71.0275 147.268C71.0275 147.268 71.0849 147.383 71.1997 147.498C71.3145 147.613 71.4866 147.901 71.7736 148.246L71.0832 148.705L69.9931 147.037L70.1666 146.175L75.5115 147.159Z" fill="white"/>
<path d="M75.8007 145.722L71.6071 143.417L71.2599 145.256L70.3978 145.083L70.9187 142.209L71.6084 142.325L76.032 144.63L75.8007 145.722Z" fill="white"/>
<path d="M74.1976 139.224C75.1747 139.398 75.8642 139.629 76.2087 139.974C76.6107 140.262 76.7251 140.722 76.667 141.239C76.5514 141.757 76.2636 142.101 75.8035 142.215C75.3434 142.387 74.5962 142.329 73.6191 142.155C72.6421 141.982 71.9526 141.751 71.5506 141.405C71.1485 141.117 70.9767 140.657 71.0922 140.198C71.2078 139.68 71.4382 139.336 71.9557 139.221C72.4733 139.05 73.1631 139.05 74.1976 139.224ZM73.8504 141.121C74.5975 141.237 75.1148 141.295 75.4023 141.295C75.6897 141.296 75.8048 141.181 75.8625 141.008C75.8627 140.893 75.8628 140.778 75.7479 140.721C75.6331 140.606 75.4607 140.548 75.2308 140.49C75.0009 140.432 74.5987 140.317 74.0814 140.259C73.3342 140.143 72.8169 140.085 72.5295 140.084C72.242 140.084 72.0694 140.199 72.0692 140.371C72.0115 140.544 72.1263 140.716 72.4136 140.832C72.586 140.889 73.1032 141.005 73.8504 141.121Z" fill="white"/>
<path d="M80.7681 126.068L80.4221 126.987L77.4342 125.891C77.0894 125.776 76.7447 125.603 76.3425 125.43C76.3425 125.43 76.3999 125.545 76.5147 125.66C76.572 125.832 76.7441 126.063 76.916 126.523L76.1683 126.867L75.4233 125.026L75.7117 124.164L80.7681 126.068Z" fill="white"/>
<path d="M78.9301 124.283C77.8958 123.879 77.2065 123.476 76.8047 122.958C76.4604 122.44 76.4037 121.865 76.6344 121.233C76.692 121.118 76.6922 121.003 76.7497 120.946C76.8074 120.831 76.8649 120.773 76.865 120.716L77.6694 121.004C77.5542 121.177 77.4966 121.292 77.4389 121.464C77.3236 121.751 77.3233 121.981 77.3806 122.154C77.4378 122.384 77.5525 122.556 77.7823 122.729C77.9545 122.902 78.2992 123.075 78.7014 123.248L78.7015 123.19C78.5292 123.017 78.4145 122.845 78.3572 122.672C78.2999 122.5 78.3001 122.327 78.4154 122.097C78.5308 121.753 78.761 121.523 79.106 121.466C79.451 121.351 79.9109 121.409 80.428 121.64C80.9451 121.813 81.3472 122.101 81.5766 122.504C81.8061 122.849 81.8056 123.251 81.6901 123.711C81.5171 124.171 81.2293 124.458 80.7693 124.515C80.3093 124.629 79.677 124.571 78.9301 124.283ZM80.8856 123.423C80.9433 123.308 80.886 123.135 80.7712 123.02C80.6563 122.905 80.4266 122.732 80.0818 122.617C79.7945 122.502 79.6221 122.501 79.3921 122.501C79.2197 122.501 79.1046 122.616 79.0469 122.788C78.9893 122.903 79.0465 123.075 79.1614 123.191C79.2762 123.306 79.4485 123.421 79.6783 123.536C80.0231 123.652 80.3104 123.709 80.4829 123.71C80.7129 123.652 80.828 123.538 80.8856 123.423Z" fill="white"/>
<path d="M80.7778 118.019C81.6972 118.365 82.3291 118.711 82.6736 119.056C83.0181 119.402 83.075 119.862 82.9019 120.379C82.7288 120.896 82.3836 121.125 81.8661 121.24C81.3486 121.297 80.659 121.181 79.7396 120.835C78.8203 120.489 78.1883 120.143 77.8439 119.74C77.4995 119.337 77.4425 118.935 77.6156 118.475C77.7886 117.958 78.1338 117.729 78.5939 117.614C79.1688 117.557 79.8585 117.673 80.7778 118.019ZM80.1432 119.858C80.8327 120.146 81.3499 120.262 81.6373 120.32C81.9247 120.32 82.0972 120.263 82.1549 120.09C82.2126 119.976 82.1552 119.861 82.0979 119.745C82.0405 119.63 81.8682 119.515 81.6384 119.4C81.4086 119.285 81.0064 119.112 80.5467 118.939C79.8572 118.708 79.34 118.535 79.0526 118.535C78.7652 118.534 78.5927 118.591 78.535 118.764C78.4773 118.936 78.5345 119.109 78.7643 119.281C78.9366 119.397 79.3962 119.627 80.1432 119.858Z" fill="white"/>
<path d="M89.5888 106.246L89.0704 107.107L86.3131 105.494C86.0258 105.321 85.6812 105.091 85.2791 104.861C85.2791 104.861 85.3365 104.976 85.3937 105.148C85.451 105.321 85.5081 105.608 85.68 106.068L84.875 106.24L84.4175 104.342L84.8783 103.538L89.5888 106.246Z" fill="white"/>
<path d="M87.9845 102.22C88.2149 101.875 88.5026 101.646 88.8476 101.588C89.1926 101.531 89.5949 101.589 90.0544 101.877C90.5714 102.165 90.9159 102.511 91.0303 102.971C91.1448 103.373 91.0868 103.833 90.8563 104.293C90.6258 104.695 90.338 104.982 90.0504 105.154L89.2462 104.693C89.3612 104.636 89.5338 104.521 89.7064 104.406C89.879 104.292 89.9942 104.119 90.0518 104.004C90.3398 103.545 90.1678 103.142 89.6508 102.854C89.1338 102.566 88.7888 102.623 88.5008 103.083C88.3856 103.255 88.3279 103.485 88.2701 103.715L87.925 103.887L85.6274 102.389L86.7796 100.379L87.5838 100.84L86.835 102.103L87.8114 102.737C87.8117 102.507 87.8693 102.392 87.9845 102.22Z" fill="white"/>
<path d="M91.036 98.3144C91.8977 98.8328 92.4719 99.2934 92.7014 99.6961C92.9883 100.099 92.9878 100.559 92.6998 101.018C92.4118 101.478 92.0666 101.707 91.5493 101.649C91.0319 101.649 90.3999 101.36 89.5382 100.899C88.6765 100.381 88.1597 99.9204 87.8728 99.5177C87.5859 99.1149 87.5865 98.655 87.8744 98.1955C88.1624 97.736 88.5076 97.5065 89.0249 97.5646C89.4848 97.5652 90.1169 97.7959 91.036 98.3144ZM89.9991 100.038C90.631 100.441 91.0906 100.671 91.3779 100.729C91.6653 100.787 91.8378 100.787 91.8955 100.615C91.9531 100.5 91.9532 100.385 91.8959 100.27C91.8385 100.155 91.6662 100.04 91.494 99.8671C91.2642 99.6943 90.9196 99.5214 90.46 99.2335C89.8282 98.8303 89.3685 98.6572 89.0812 98.5419C88.7939 98.4841 88.6214 98.4839 88.5637 98.6563C88.4485 98.8286 88.5058 99.0011 88.7355 99.1738C88.9653 99.3466 89.3673 99.6345 89.9991 100.038Z" fill="white"/>
<path d="M101.683 88.2105L101.05 88.957L98.5804 86.8845C98.2933 86.6542 98.0062 86.3664 97.7191 86.0786C97.719 86.1361 97.719 86.1936 97.7762 86.3661C97.776 86.5386 97.8332 86.8261 97.8901 87.286L97.0277 87.3425L96.9152 85.3878L97.4909 84.6987L101.683 88.2105Z" fill="white"/>
<path d="M103.528 84.2462L103.182 84.6482L104.044 85.3966L103.41 86.1431L102.549 85.3947L101.398 86.773L100.766 86.2548L99.1606 82.7462L99.8514 81.9422L102.493 84.1874L102.838 83.7855L103.528 84.2462ZM101.917 84.8766L101.056 84.1282L100.654 83.7828L100.309 83.4374C100.482 83.6676 100.596 83.8977 100.711 84.1278L101.342 85.5082L101.917 84.8766Z" fill="white"/>
<path d="M104.509 80.6832C105.256 81.3164 105.715 81.8919 105.887 82.352C106.059 82.8121 106.001 83.2719 105.655 83.6739C105.31 84.0758 104.907 84.2478 104.447 84.1322C103.988 84.0167 103.356 83.671 102.609 83.0377C101.863 82.4045 101.404 81.8291 101.232 81.369C101.06 80.9089 101.118 80.449 101.463 80.1046C101.809 79.7026 102.211 79.5306 102.671 79.6462C103.073 79.6467 103.705 80.0498 104.509 80.6832ZM103.243 82.1762C103.817 82.6943 104.219 82.9823 104.506 83.0976C104.736 83.2128 104.908 83.213 105.024 83.0407C105.081 82.9258 105.139 82.8109 105.082 82.6959C105.024 82.5808 104.909 82.4083 104.737 82.2356C104.565 82.0629 104.278 81.7751 103.876 81.4297C103.302 80.9691 102.9 80.6237 102.612 80.5084C102.383 80.3931 102.153 80.3928 102.038 80.5077C101.922 80.6225 101.922 80.8524 102.094 81.0826C102.266 81.3702 102.668 81.7157 103.243 82.1762Z" fill="white"/>
<path d="M116.765 72.5918L116.017 73.2232L113.95 70.7488C113.721 70.4611 113.491 70.1734 113.204 69.7706C113.204 69.8281 113.204 69.8856 113.204 70.058C113.204 70.2305 113.203 70.5179 113.145 70.9777L112.341 70.8618L112.573 68.9076L113.264 68.3335L116.765 72.5918Z" fill="white"/>
<path d="M117.059 66.901C117.289 67.1887 117.404 67.4188 117.403 67.7062C117.403 67.9937 117.345 68.281 117.172 68.5107C117.46 68.3386 117.748 68.2815 118.035 68.2819C118.322 68.3397 118.552 68.5125 118.782 68.7427C119.126 69.1455 119.241 69.548 119.183 69.9504C119.125 70.3527 118.894 70.7548 118.491 71.0992C118.146 71.3862 117.743 71.6157 117.398 71.6727L116.824 70.9822C116.997 70.9249 117.227 70.9252 117.4 70.8105C117.572 70.7532 117.745 70.6384 117.86 70.5236C118.09 70.3514 118.205 70.1216 118.205 69.9492C118.206 69.7767 118.148 69.5467 117.976 69.3165C117.632 68.9137 117.172 68.9131 116.712 69.315L116.481 69.4872L116.022 68.9117L116.252 68.7396C116.483 68.5674 116.598 68.3376 116.655 68.1652C116.713 67.9353 116.598 67.7627 116.426 67.5326C116.312 67.36 116.139 67.3023 116.024 67.2446C115.852 67.2444 115.737 67.3018 115.564 67.4165C115.334 67.5887 115.219 67.876 115.161 68.2208L114.356 67.9899C114.414 67.4726 114.645 67.013 115.048 66.6686C115.393 66.3816 115.738 66.2096 116.083 66.2675C116.485 66.3829 116.772 66.5557 117.059 66.901Z" fill="white"/>
<path d="M120.797 65.6411C121.429 66.3892 121.773 67.0219 121.887 67.482C122.002 67.942 121.829 68.4017 121.426 68.7461C121.023 69.0905 120.621 69.1475 120.161 68.9745C119.701 68.8014 119.184 68.3409 118.553 67.5353C117.922 66.7872 117.578 66.1545 117.463 65.637C117.349 65.1194 117.522 64.7173 117.925 64.3728C118.327 64.0284 118.73 63.9714 119.19 64.1445C119.649 64.4325 120.166 64.893 120.797 65.6411ZM119.301 66.9039C119.818 67.4794 120.162 67.8822 120.392 67.9975C120.622 68.1702 120.794 68.1704 120.909 68.0556C121.024 67.9983 121.025 67.8833 121.025 67.7683C121.025 67.6534 120.91 67.4808 120.795 67.2507C120.623 67.0205 120.394 66.7328 120.049 66.33C119.59 65.7546 119.188 65.4091 118.958 65.2364C118.729 65.0637 118.556 65.0634 118.384 65.1782C118.268 65.293 118.211 65.4654 118.383 65.7531C118.555 65.9257 118.842 66.3285 119.301 66.9039Z" fill="white"/>
<path d="M134.313 59.852L133.45 60.3683L131.844 57.607C131.672 57.3193 131.5 56.9742 131.27 56.5715C131.27 56.629 131.27 56.6865 131.212 56.8589C131.155 57.0313 131.097 57.3186 130.981 57.7784L130.177 57.5474L130.754 55.6511L131.559 55.1922L134.313 59.852Z" fill="white"/>
<path d="M137.765 57.8442L135.234 59.2782L134.832 58.6454L135.007 56.9785C135.065 56.5187 135.065 56.1738 135.066 56.0013C135.066 55.7714 135.009 55.5988 135.009 55.4264C134.952 55.2539 134.894 55.0813 134.837 54.9663C134.722 54.7937 134.607 54.6786 134.493 54.6209C134.378 54.5633 134.205 54.6206 134.09 54.6779C133.975 54.7353 133.86 54.8501 133.802 54.965C133.745 55.0799 133.687 55.2523 133.629 55.4822L132.825 55.2512C132.883 54.8489 132.998 54.5616 133.171 54.3894C133.286 54.1596 133.516 53.9874 133.689 53.8726C134.091 53.6432 134.436 53.5861 134.781 53.7015C135.126 53.8169 135.413 54.0472 135.642 54.4499C135.757 54.6225 135.814 54.795 135.872 54.9676C135.929 55.1401 135.986 55.3701 135.986 55.5426C135.986 55.7725 135.985 56.0024 135.985 56.2324C135.985 56.4623 135.869 57.037 135.753 57.9567L137.306 57.0963L137.765 57.8442Z" fill="white"/>
<path d="M139.494 53.7072C140.011 54.5701 140.24 55.2602 140.239 55.7201C140.239 56.2375 140.008 56.5821 139.606 56.869C139.145 57.1559 138.685 57.1553 138.283 56.8674C137.881 56.5795 137.422 56.0615 136.906 55.1986C136.389 54.3357 136.16 53.6456 136.161 53.1857C136.162 52.6683 136.392 52.3237 136.795 52.0368C137.255 51.7499 137.657 51.7504 138.117 52.0384C138.576 52.2689 139.036 52.8443 139.494 53.7072ZM137.826 54.6824C138.228 55.3152 138.515 55.7755 138.687 55.9481C138.859 56.1208 139.032 56.1785 139.204 56.1212C139.319 56.0639 139.377 55.949 139.377 55.834C139.377 55.719 139.32 55.489 139.205 55.2589C139.09 55.0289 138.918 54.6837 138.632 54.2235C138.23 53.5907 138.001 53.1305 137.771 52.9577C137.599 52.7276 137.426 52.7274 137.254 52.7847C137.081 52.8994 137.081 53.0719 137.138 53.3019C137.195 53.5319 137.425 53.9921 137.826 54.6824Z" fill="white"/>
<path d="M153.814 50.2756L152.894 50.6194L151.805 47.6288C151.69 47.2838 151.576 46.9387 151.461 46.4787C151.461 46.5362 151.404 46.5936 151.346 46.766C151.288 46.9383 151.173 47.2256 151 47.6278L150.253 47.2245L151.175 45.5011L152.038 45.2147L153.814 50.2756Z" fill="white"/>
<path d="M157.092 49.0725L156.172 49.4163L155.083 46.4257C154.969 46.0806 154.854 45.7356 154.74 45.2756C154.74 45.333 154.682 45.3905 154.624 45.5628C154.567 45.7352 154.451 46.0225 154.279 46.4247L153.532 46.0214L154.454 44.2979L155.316 44.0116L157.092 49.0725Z" fill="white"/>
<path d="M160.028 45.1668C160.372 46.087 160.486 46.777 160.428 47.2943C160.37 47.8116 160.082 48.0987 159.564 48.328C159.047 48.4998 158.644 48.4418 158.3 48.0965C157.955 47.7511 157.611 47.1184 157.267 46.1982C156.924 45.278 156.81 44.588 156.868 44.0707C156.926 43.5534 157.214 43.2089 157.731 43.037C158.249 42.8652 158.651 42.9232 158.996 43.2685C159.34 43.5564 159.684 44.1892 160.028 45.1668ZM158.188 45.7969C158.474 46.4871 158.646 47.0047 158.818 47.2348C158.99 47.465 159.105 47.5226 159.278 47.4654C159.393 47.408 159.451 47.3506 159.508 47.1782C159.508 47.0632 159.509 46.8333 159.451 46.6033C159.394 46.3733 159.28 45.9707 159.108 45.4531C158.879 44.763 158.649 44.3029 158.477 44.0727C158.305 43.8425 158.133 43.7274 157.96 43.8421C157.788 43.8994 157.73 44.0718 157.73 44.3592C157.787 44.5892 157.901 45.1067 158.188 45.7969Z" fill="white"/>
<path d="M174.4 44.3211L173.422 44.4924L172.851 41.33C172.794 40.985 172.737 40.5825 172.68 40.1226C172.68 40.1226 172.623 40.2375 172.508 40.3523C172.393 40.4671 172.22 40.7543 171.989 41.1564L171.3 40.6382L172.509 39.0876L173.372 38.9162L174.4 44.3211Z" fill="white"/>
<path d="M177.911 40.9349C178.082 41.9124 178.081 42.6022 177.908 43.1194C177.735 43.5791 177.39 43.8661 176.873 43.9804C176.355 44.0947 175.953 43.9218 175.666 43.519C175.379 43.1163 175.15 42.4261 174.979 41.5062C174.807 40.5287 174.808 39.8389 174.981 39.3217C175.154 38.862 175.5 38.575 175.96 38.4606C176.477 38.3463 176.879 38.5193 177.166 38.922C177.511 39.2673 177.74 39.9575 177.911 40.9349ZM176.014 41.2775C176.128 42.025 176.242 42.5425 176.357 42.7726C176.471 43.0026 176.586 43.1178 176.816 43.118C176.931 43.1182 177.046 43.0033 177.046 42.8884C177.104 42.7735 177.104 42.5435 177.105 42.3136C177.105 42.0262 177.048 41.6812 176.934 41.1062C176.82 40.3587 176.705 39.8987 176.59 39.6111C176.476 39.381 176.304 39.2659 176.131 39.2656C175.959 39.3229 175.843 39.4377 175.843 39.7252C175.785 40.0125 175.842 40.53 176.014 41.2775Z" fill="white"/>
<path d="M181.418 40.3644C181.589 41.3419 181.588 42.0317 181.415 42.5489C181.242 43.0085 180.897 43.2955 180.379 43.4099C179.862 43.5242 179.46 43.3512 179.173 42.9485C178.886 42.5457 178.657 41.8556 178.485 40.9356C178.314 39.9582 178.315 39.2683 178.488 38.7512C178.661 38.2915 179.006 38.0045 179.466 37.8901C179.984 37.7758 180.386 37.9487 180.673 38.3515C181.018 38.6968 181.247 39.3294 181.418 40.3644ZM179.463 40.7069C179.577 41.4544 179.691 41.9719 179.806 42.202C179.921 42.432 180.036 42.5472 180.265 42.5474C180.38 42.5476 180.496 42.4327 180.496 42.3178C180.553 42.2029 180.554 41.9729 180.554 41.743C180.554 41.4556 180.497 41.1106 180.383 40.5356C180.269 39.7881 180.154 39.3281 180.04 39.0405C179.925 38.8104 179.753 38.6953 179.58 38.695C179.408 38.7523 179.293 38.8671 179.292 39.1546C179.292 39.442 179.349 39.9594 179.463 40.7069Z" fill="white"/>
<path d="M86.5249 165.971L75.6602 165.957L75.6592 166.762L86.5239 166.776L86.5249 165.971Z" fill="white"/>
<path d="M77.6402 144.616L77.4995 145.408L88.1968 147.307L88.3375 146.515L77.6402 144.616Z" fill="white"/>
<path d="M83.282 123.964L83.0059 124.72L93.2109 128.448L93.4871 127.692L83.282 123.964Z" fill="white"/>
<path d="M92.3954 104.618L91.9922 105.314L101.394 110.758L101.798 110.062L92.3954 104.618Z" fill="white"/>
<path d="M104.782 87.0751L104.264 87.691L112.579 94.6852L113.097 94.0693L104.782 87.0751Z" fill="white"/>
<path d="M119.947 72.0192L119.33 72.5357L126.304 80.8668L126.921 80.3502L119.947 72.0192Z" fill="white"/>
<path d="M137.573 59.8163L136.875 60.2178L142.296 69.6334L142.994 69.2319L137.573 59.8163Z" fill="white"/>
<path d="M157.053 50.8748L156.296 51.1491L160 61.3634L160.756 61.0891L157.053 50.8748Z" fill="white"/>
<path d="M177.752 45.3808L176.959 45.5195L178.832 56.2215L179.625 56.0827L177.752 45.3808Z" fill="white"/>
<path d="M199.12 43.6055L198.315 43.6045L198.302 54.4692L199.106 54.4702L199.12 43.6055Z" fill="white"/>
<path d="M199.8 164.075L197.807 164.073L197.795 173.676L199.788 173.678L199.8 164.075Z" fill="white"/>
<path d="M219.647 45.4566L217.745 56.1539L218.538 56.2948L220.439 45.5974L219.647 45.4566Z" fill="white"/>
<path d="M240.354 50.9526L236.626 61.1587L237.382 61.4348L241.11 51.2287L240.354 50.9526Z" fill="white"/>
<path d="M259.792 59.9746L254.348 69.3768L255.044 69.7801L260.488 60.3779L259.792 59.9746Z" fill="white"/>
<path d="M277.365 72.1964L270.375 80.5134L270.991 81.0313L277.981 72.7142L277.365 72.1964Z" fill="white"/>
<path d="M292.527 87.3732L284.192 94.3436L284.709 94.9609L293.043 87.9906L292.527 87.3732Z" fill="white"/>
<path d="M304.846 104.836L295.43 110.256L295.832 110.954L305.247 105.533L304.846 104.836Z" fill="white"/>
<path d="M313.914 124.242L303.7 127.945L303.974 128.701L314.189 124.999L313.914 124.242Z" fill="white"/>
<path d="M319.508 144.927L308.806 146.802L308.945 147.594L319.647 145.719L319.508 144.927Z" fill="white"/>
<path d="M321.415 166.261L310.55 166.247L310.549 167.052L321.414 167.065L321.415 166.261Z" fill="white"/>
<defs>
<clipPath id="clip0_17_3350">
<rect width="15.1345" height="15.1345" fill="white" transform="translate(367.065 180.654)"/>
</clipPath>
<clipPath id="clip1_17_3350">
<rect width="15.1345" height="15.1345" fill="white" transform="translate(15.3057 180.654)"/>
</clipPath>
<clipPath id="clip2_17_3350">
<rect width="14.3231" height="14.3231" fill="white" transform="translate(188.816 189.407) rotate(-45)"/>
</clipPath>
</defs>
</svg>
